<?xml version="1.0" encoding="utf-8"?>
<!-- Generator: Adobe Illustrator 27.2.0, SVG Export Plug-In . SVG Version: 6.00 Build 0)  -->
<svg version="1.1" id="Layer_1" xmlns="http://www.w3.org/2000/svg" xmlns:xlink="http://www.w3.org/1999/xlink" x="0px" y="0px"
	 viewBox="0 0 340 120" style="enable-background:new 0 0 340 120;" xml:space="preserve">
<style type="text/css">
	.st0{fill:#FFFFFF;}
	.st1{fill:#5EC4B4;}
</style>
<polygon class="st0" points="324.9,39.9 324.9,55 333.8,55 333.8,53.5 326.8,53.5 326.8,39.9 "/>
<g>
	<g>
		<g>
			<path class="st0" d="M73.1,51.4c0,0.1,0,0.1-0.2,0.2"/>
		</g>
		<g>
			<path class="st0" d="M75.2,35.9c0.2,0,0.3-0.1,0.3-0.3s-0.2-0.4-0.3-0.4c-0.3,0-0.5,0.2-0.5,0.4C74.8,35.8,74.9,35.9,75.2,35.9"
				/>
		</g>
		<g>
			<path class="st0" d="M89.4,18.9H94V27h-4.6V18.9z M93.8,30.6c0,0.9-0.3,1.5-0.8,2l-3.6,2.2v-7.5h4.4V30.6z M84.8,18.9h4.3V27
				h-4.3V18.9z M88.9,35l-1.6,1c0,0.1-0.2,0.1-0.3,0.1c-0.2,0-0.3,0-0.5-0.1l-1.6-1v-7.7H89L88.9,35L88.9,35z M83.1,23.9h1.3v2.9
				h-1.3V23.9z M84.5,34.8l-3.6-2.2c-0.7-0.4-1-1.1-1-2v-3.4h4.6V34.8z M79.9,18.9h1.6v3h-1.6V18.9z M81.8,20l0.2-0.2l-0.2-0.2
				l0.3,0.1l0.2-0.3v0.3l0.3-0.1l-0.2,0.2l0.2,0.2l-0.2,0.1v0.2l-0.2-0.2L82,20.3v-0.2L81.8,20z M83,23.2c0-0.1-0.2-0.1-0.2-0.1
				c-0.2,0-0.3,0.2-0.3,0.2c-0.2,0-0.2,0-0.2-0.1s0.2-0.1,0.2-0.2c-1,0-1,0.4-1.2,0.4s0.3-0.4,0.5-0.5c-0.3,0-0.3-0.3-0.7-0.4
				c0.2-0.1,0.2-0.1,0.3,0c0-0.1,0.2-0.2,0.3-0.2c0.5,0,0.3,0.4,0.3,0.4c0.2,0,0-0.4,0.3-0.4c0.5,0,1,1.1,0.5,1.1
				C82.8,23.3,83,23.2,83,23.2 M81.8,25.5l0.3,0.1l0.2-0.3v0.3l0.3-0.1l-0.2,0.2l0.2,0.2L82.4,26v0.2L82.2,26L82,26.3v-0.2L81.8,26
				l0.2-0.2L81.8,25.5z M80.2,22.6h0.2l0.2-0.2l0.2,0.2H81v0.2l0,0.2h-0.3v0.3l-0.2-0.2l-0.2,0.2V23H80l0.2-0.2V22.6z M79.9,23.9
				h1.6v2.9h-1.6V23.9z M83.5,23l0.2-0.2l-0.2-0.2h0.3l0.2-0.2v0.2h0.3l-0.2,0.2l0.2,0.2h-0.2v0.3L84,23.1l-0.3,0.2V23H83.5z
				 M83.1,18.9h1.3v3h-1.3V18.9z M94.3,18.4h-15v12c0,1.2,0.5,2.3,1.3,2.5l5.6,3.5c0.2,0.1,0.3,0.2,0.7,0.2c0.2,0,0.3-0.1,0.3-0.2
				l5.9-3.5c0.7-0.2,1.2-1.3,1.2-2.5V18.4z"/>
		</g>
		<g>
			<path class="st0" d="M84.1,30c0,0-0.5,0.2-0.3,0.2c0-0.2,0.2-0.5,0.3-0.7c0-0.2-0.2,0-0.5,0.1c0.8-1.2,0.3-0.8-0.2-0.7
				c0.8-0.8,0.5-0.8,0-0.5c0.5-0.3,0.5-0.8,0.5-0.9c-0.5,0.5-0.8,0.4-0.8,1c0,0.3-0.2,0.9-0.3,1.1c-0.2,0.2,0-0.9-0.7-0.9
				c-0.2,0-0.5-0.1-0.7,0.2c0.2,0,0.3,0.2,0.3,0.3c0,0.2,0,0.5-0.2,0.5s-0.3-0.4-0.3-0.7c0-0.2-0.2-0.1-0.2-0.4c0-0.5-0.7-1.2-1-1.2
				c0,0.3,0.3,0.4,0.3,0.9c-0.2,0-0.3-0.3-0.3-0.1c0,0.2,0.2,0.2,0.2,0.4c0,0.2-0.3-0.1-0.3,0.1s0.2,0.1,0.3,0.3H80
				c0,0.1,0,0.2,0.2,0.2c0,0.1-0.2,0.1-0.2,0.4c0,1,0.7,1.4,1.1,1.4c0.3,0,0.2-0.2,0.3-0.3c0,0.1,0.2-0.1,0.2,0.2
				c0,0.2-0.3,0.1-0.3,0.4s0.5-0.1,0.5,0.3s-0.2,0.4-0.2,0.7c0,0.1,0.5-0.2,0.5-0.2c0.2,0,0.2,0.3,0.3,0.3c0.2,0,0.2-0.3,0.3-0.3
				c0,0,0.5,0.3,0.5,0.1c0-0.4-0.2-0.2-0.2-0.5s0.5-0.2,0.5-0.3c-0.2-0.1-0.2-0.1-0.3-0.3c0.2,0.1-0.3-0.7,0.2-0.3
				C84.1,31.4,84.1,30.1,84.1,30"/>
		</g>
		<g>
			<path class="st0" d="M100.1,33.1c0.2,0,0.5-0.2,0.5-0.4s-0.3-0.4-0.5-0.4c-0.3,0-0.5,0.2-0.5,0.4C99.6,32.9,99.8,33.1,100.1,33.1
				"/>
		</g>
		<g>
			<path class="st0" d="M98.1,34.3c0.2,0,0.5-0.2,0.5-0.4s-0.3-0.4-0.5-0.4c-0.3,0-0.5,0.2-0.5,0.4S97.8,34.3,98.1,34.3"/>
		</g>
		<g>
			<path class="st0" d="M74.4,37.1c0.3,0,0.5-0.2,0.5-0.4s-0.2-0.4-0.5-0.4c-0.2,0-0.5,0.2-0.5,0.4C73.9,36.8,74.3,37.1,74.4,37.1"
				/>
		</g>
		<g>
			<path class="st0" d="M76.1,37.2c0.2,0,0.5-0.2,0.5-0.4s-0.3-0.4-0.5-0.4c-0.3,0-0.5,0.2-0.5,0.4S75.7,37.2,76.1,37.2"/>
		</g>
		<g>
			<path class="st0" d="M118.5,16.6c0.7,0.9,0.8,2.3,0.3,3.3c-0.3,0-0.3-0.4-0.3-0.7c-0.5-1-1-2.2-0.5-3.3
				C118.4,16.1,118.2,16.4,118.5,16.6"/>
		</g>
		<g>
			<path class="st0" d="M56.1,17.8c-0.2,0.7-0.2,1.5,0,2.1c-0.2,0.1,0-0.1-0.2-0.1c-1-0.8-0.5-2.2-0.8-3.2c0-0.1,0.2-0.1,0.3-0.1
				C55.8,16.8,56.1,17.3,56.1,17.8"/>
		</g>
		<g>
			<path class="st0" d="M120.7,17.9c0.2,0.2-0.2,0.5-0.3,0.7c-0.2,0.1-0.5-0.1-0.6-0.3c0-0.2,0.2-0.5,0.3-0.6
				C120.3,17.6,120.5,17.6,120.7,17.9"/>
		</g>
		<g>
			<path class="st0" d="M54.7,19c-0.2,0.2-0.2,0.5-0.3,0.7c-0.2,0-0.5,0-0.5-0.2c-0.2-0.1-0.3-0.3-0.2-0.5c0.2-0.1,0.3-0.2,0.5-0.2
				C54.3,18.8,54.5,18.8,54.7,19"/>
		</g>
		<g>
			<path class="st0" d="M121.7,19.4c0.2,0.2,0.2,0.3,0,0.4c-0.2,0.2-0.3,0.3-0.7,0.2c-0.2-0.1-0.2-0.2-0.3-0.4
				c0.2-0.2,0.3-0.3,0.5-0.4C121.3,19.2,121.5,19.3,121.7,19.4"/>
		</g>
		<g>
			<path class="st0" d="M120.2,19.5c0.3,0.1,0.2,0.3,0,0.4c0,0.2-0.2,0.3-0.5,0.3c-0.2-0.1-0.3-0.1-0.3-0.3c0-0.3,0.2-0.5,0.3-0.7
				C120,19.3,120,19.4,120.2,19.5"/>
		</g>
		<g>
			<path class="st0" d="M118.4,19.9c0,0.3,0,0.7-0.3,0.8c-0.3,0.1-0.5-0.2-0.7-0.4c0-0.2,0.2-0.5,0.5-0.5
				C118,19.6,118.2,19.8,118.4,19.9"/>
		</g>
		<g>
			<path class="st0" d="M57.5,20c0,0.3-0.2,0.4-0.3,0.5c-0.2,0.1-0.5-0.1-0.5-0.2c-0.2-0.2,0-0.3,0-0.5C57,19.5,57.3,19.8,57.5,20"
				/>
		</g>
		<g>
			<path class="st0" d="M55.8,20.1c0,0.2,0,0.4-0.2,0.5c-0.3,0-0.5-0.1-0.7-0.3c0-0.2,0.2-0.4,0.3-0.5
				C55.7,19.6,55.8,19.9,55.8,20.1"/>
		</g>
		<g>
			<path class="st0" d="M112.1,20.2c0.2,0.5,0.3,1.2,0.5,1.8c-0.2,0.5,0,1.2-0.3,1.5c-0.3-0.1-0.3-0.5-0.7-0.8c-0.5-1,0-2.1,0.2-2.9
				C111.9,19.8,111.9,20.1,112.1,20.2"/>
		</g>
		<g>
			<path class="st0" d="M54.7,20.5c0,0.3-0.2,0.4-0.3,0.7c-0.3,0.1-0.5-0.1-0.7-0.3c0-0.3,0.2-0.5,0.3-0.7
				C54.3,20.2,54.5,20.3,54.7,20.5"/>
		</g>
		<g>
			<path class="st0" d="M116.2,21.3c0.3,0.8,0.3,1.6,0,2.5l-0.2,0.1c-0.3-0.7-0.8-1.3-1-2.1c0-0.5,0-1.1,0.3-1.5
				c0.2-0.1,0.2,0,0.3,0.2C115.7,20.7,115.9,21.1,116.2,21.3"/>
		</g>
		<g>
			<path class="st0" d="M119.3,20.8c0,0.2,0,0.5-0.3,0.5c-0.3,0.1-0.5,0-0.7-0.3c0-0.2,0.2-0.4,0.3-0.5
				C119,20.3,119.3,20.6,119.3,20.8"/>
		</g>
		<g>
			<path class="st0" d="M56,21.6c0,0.2-0.3,0.4-0.5,0.5S55.2,22,55,21.9c-0.2-0.2-0.2-0.4,0-0.7c0-0.1,0.2-0.1,0.3-0.2
				C55.7,21.3,55.8,21.4,56,21.6"/>
		</g>
		<g>
			<path class="st0" d="M57,21.5c0.2,0.2-0.2,0.3-0.2,0.5c-0.3,0.1-0.5-0.2-0.7-0.3c0-0.3,0.2-0.4,0.3-0.7
				C56.8,21.1,57,21.3,57,21.5"/>
		</g>
		<g>
			<path class="st0" d="M120.2,21.4c0,0.3-0.5,0.7-0.7,1.1c-0.3,0.7-0.8,1.2-1.6,1.4c-0.2,0.1-0.3,0.3-0.5,0.3
				c-0.2-0.5,0.3-1,0.7-1.4C118.5,22,119.3,21.6,120.2,21.4"/>
		</g>
		<g>
			<path class="st0" d="M55.3,22.5c0.5,0.4,0.7,0.9,1.2,1.3c0,0.1,0,0.2-0.2,0.2c-1.3-0.1-2.1-1.4-2.8-2.3c0-0.3,0.3-0.1,0.7-0.1
				C54.5,21.9,55,22,55.3,22.5"/>
		</g>
		<g>
			<path class="st0" d="M120.5,22.9c0,1.1-0.7,2.3-1.6,2.8c-0.2,0.1-0.5,0.3-0.8,0.2C118.6,24.7,119.4,23.8,120.5,22.9L120.5,22.9z"
				/>
		</g>
		<g>
			<path class="st0" d="M115.6,23.7c0,0.3-0.2,0.5-0.5,0.8c-0.3,0-0.5-0.2-0.6-0.4c0-0.3,0.2-0.5,0.5-0.7h0.2
				C115.2,23.3,115.4,23.5,115.6,23.7"/>
		</g>
		<g>
			<path class="st0" d="M54,23.9c0.5,0.3,0.8,0.8,1.3,1.2c-0.3,0.2-0.7,0-1.2,0c-0.8-0.3-1.5-1.1-2.3-1.3c0-0.3,0.3-0.2,0.5-0.2
				C52.9,23.5,53.4,23.8,54,23.9"/>
		</g>
		<g>
			<path class="st0" d="M81.8,16.2c-1.5-0.7-2.5,0.9-4,0.7c-0.2,0.1-0.2,0.3-0.2,0.4c-0.2,0.1-0.2,0.1-0.3,0c0-0.7-0.3-1.2-0.3-1.9
				c-0.2-0.2-0.2-0.5-0.2-0.9c-0.8-2.3,2-0.5,2.5-1.9c0.5-1.2-0.8-1.3-1.3-2.1v-0.3c-0.5-0.4-0.8-0.5-1.2-1.2C77,8.3,77.1,7.7,77,7
				c-0.2-0.1-0.2-0.3-0.5-0.3c-0.5,0.8-0.8,1.3-1.3,2c-0.5-0.4-1-0.9-1.5-1.2c-0.3,0-0.8-0.4-1.2-0.3c-0.2,0.2,0,0.3,0,0.4
				c0,1,0.5,1.9,1.3,2.6v0.3c-0.5,1.1-0.3,2.3-0.5,3.5c-1.2,2.9-3,5.9-5.6,7.9c-1.5,1.6-3.3,3.3-3.5,5.6c0,0.4,0,0.9-0.2,1.1
				c-1-0.3-1.8-0.7-2.5-1.3c-1.2-0.8-3-0.7-3.8-2.2c-0.2-0.7,0.2-1.2,0.5-1.6c0.8-0.9,0.7-2.4,0.2-3.4c0,0,0,0.1-0.2,0.1
				c0,1.5-1.3,2.6-0.8,4.4c0.2,0.4,0.3,0.8,0.5,1.3c-0.2-0.1-0.5-0.1-0.7-0.2c-0.5,0-1-0.3-1.6-0.2c-1.2,0.5-2.8-0.1-3.8,1
				c-0.2,0-0.3,0.1-0.3,0.3c0.5,0,1.2,0.1,1.6,0.1c1,0.1,1.5-0.7,2.1-1h0.2c0.3-0.2,0.7-0.1,1-0.1c1.6,0.1,3,1,4.3,1.7v0.1
				c-0.5,0.2-1,0.4-1.6,0.7c-0.5,0.4-1.2,1.1-1.3,1.9c-0.5,0.7,0,1.2,0.3,1.7c0,0.2,0,0.5,0.3,0.7c0.8-0.9,0-2,0.2-3
				c0.2-0.8,0.8-1.1,1.6-1.3c1.5-0.7,2.5,0.5,3.8,1.2c0,1.3,0.2,2.4-0.2,3.6c-0.3,0.1-0.8,0.2-1.2,0.2c-2.1,0.1-3.8,1.2-5.6,1.9
				c-0.8,0.3-1.8,0.3-2.6,0.7c0.7,0.1,1.3-0.1,2-0.1c2.6-0.4,4.4-2.4,7.2-2c-0.2,0.7-0.7,1.2-1.2,1.7c0-0.3-0.2-0.5-0.3-0.7
				c-0.2-0.1-0.5,0-0.7,0.2v0.3c0.2,0.2,0.3,0.3,0.7,0.4c-0.2,0.2-0.3,0.3-0.5,0.5c-0.8,1.2-2.3,0.7-3.1,1.5
				c-0.2,0.2-0.7,0.3-0.3,0.7c1,0.1,2-0.2,2.6-0.8c1-1.1,2-2.1,3-3c0.2,0.8-0.2,1.6-0.7,2.4c-0.2-0.2-0.3-0.3-0.7-0.4
				c-0.3,0-0.5,0.3-0.5,0.5c0.2,0.1,0.2,0.3,0.5,0.5c-1,0.5-2.1,0.7-3.1,0.9C57.8,38.9,56,39,54,39c-1,0-2,0.3-2.8,0
				c-1,0.2-2.1-0.1-3,0.4c0,0.1,0.2,0.3,0.2,0.4c1.2,0.8,2.8,0.1,4.1,0.3h10.2c0.8,0,1.5,0,2.1-0.3c1.3-0.8,2.1-2.2,2.8-3.5
				c0.2-0.4,0.3-1,0.5-1.5c0.3-1,1-1.5,2-1.6c0.2,1.3-0.2,2.7-0.5,3.9c-0.2,0.9-0.7,1.7-0.3,2.6c0,0.4,0.5,0.4,0.8,0.4
				c3.1,0,6.3-0.2,9.7,0.1c0.5,0.1,1,0.2,1.6,0.2c0.2-0.1,0.3-0.1,0.2-0.2c0-0.3-0.2-0.7-0.7-0.8c0-0.2-0.2-0.1-0.3-0.2
				c-1.6-1-3.6-0.4-5.6-0.4c-1,0.1-2,0.3-2.8-0.3c-0.5-0.4-0.2-2-0.2-2c0-0.5,1.5-4.7,1.6-5c0-0.4,0.2-0.8,0.2-1.2
				c0.2-0.5,0.2-1.2,0.2-1.7c0-0.9,0.5-1.6,0.8-2.5c0.2-0.3,0.2-0.8,0.3-1.2c0.2-0.4,0.3-1,0.5-1.3c1,0.5,1.8,0.4,2.1,1.4l0.3,2.2
				c0,0.1,0.2,0.4,0.3,0.2c0.7-0.4,0.5-1.4,0.5-2.1c0.2-0.9-0.5-1.2-0.7-2c-0.2-0.1-0.5-0.8-0.5-0.8c-0.2-0.5-1.3-1-1.2-1.6
				c0.2-0.7,0.3-1.2,1-1.5c0,0.1,0.2,0.1,0.2,0.2l0.2-0.2l0.2-2.2c0.8,0,2,0.1,3,0.1c0.2,0.1,0.3,0.2,0.7,0.2l0.2-0.2l2.1-0.4
				C83.1,17.1,82.6,16.2,81.8,16.2"/>
		</g>
	</g>
	<path class="st0" d="M84.1,17h0.2H84.1z"/>
	<g>
		<g>
			<path class="st0" d="M61.4,24.3c0,0.3-0.2,0.5-0.3,0.7c-0.2-0.1-0.3-0.1-0.5-0.3c-0.2-0.3,0.2-0.5,0.3-0.7
				C61.1,24.1,61.4,24.1,61.4,24.3"/>
		</g>
		<g>
			<path class="st0" d="M59.8,24.3C60,24.5,60,24.7,60,25c-0.3,0.1-0.5,0.2-0.7,0c-0.2-0.1-0.3-0.3-0.2-0.5
				C59.3,24.3,59.6,24.1,59.8,24.3"/>
		</g>
		<g>
			<path class="st0" d="M115.7,25.1c0.2,0.2-0.2,0.4-0.3,0.5c-0.2,0-0.5-0.1-0.5-0.4c0-0.2,0.2-0.3,0.3-0.4
				C115.4,24.8,115.7,24.9,115.7,25.1"/>
		</g>
		<g>
			<path class="st0" d="M117.2,25c0,0.2,0.2,0.3,0,0.5c-0.2,0-0.2,0.1-0.3,0.2c-0.2,0-0.5-0.1-0.5-0.3c-0.2-0.3,0.2-0.4,0.3-0.5
				C116.9,24.8,117,24.9,117.2,25"/>
		</g>
		<g>
			<path class="st0" d="M53.2,25.3c0,0.3-0.3,0.4-0.7,0.3c-0.2,0-0.2-0.2-0.2-0.3c0-0.1,0-0.3,0.2-0.4
				C52.9,24.9,53.2,25.1,53.2,25.3"/>
		</g>
		<g>
			<path class="st0" d="M61.9,25.7c0,0.2-0.2,0.4-0.3,0.5c-0.3,0-0.5-0.2-0.7-0.3c0-0.2,0.2-0.5,0.3-0.5
				C61.6,25.3,61.9,25.5,61.9,25.7"/>
		</g>
		<g>
			<path class="st0" d="M60.4,25.6c0.2,0,0.2,0.2,0.2,0.3c-0.2,0.2-0.5,0.4-0.7,0.2c-0.2-0.1-0.3-0.2-0.3-0.4
				c0.2-0.1,0.2-0.3,0.3-0.3C60.3,25.3,60.3,25.5,60.4,25.6"/>
		</g>
		<g>
			<path class="st0" d="M121.2,26c0,0.1-0.2,0.3-0.3,0.4c-0.2,0.1-0.5,0-0.7-0.1s0-0.3,0-0.4s0.3-0.2,0.5-0.3
				C120.8,25.6,121,25.7,121.2,26"/>
		</g>
		<g>
			<path class="st0" d="M122.8,26.2c-0.2,0.2-0.3,0.4-0.5,0.4s-0.5-0.1-0.3-0.3c0-0.2,0-0.3,0.2-0.4
				C122.5,25.7,122.6,25.9,122.8,26.2"/>
		</g>
		<g>
			<path class="st0" d="M56.1,26.5c0.2,0.3,0,0.5-0.3,0.7c-0.2,0.1-0.3,0-0.5-0.1c0-0.2-0.2-0.3,0-0.5c0-0.2,0.2-0.2,0.3-0.3
				C56,26.2,56,26.3,56.1,26.5"/>
		</g>
		<g>
			<path class="st0" d="M57.5,26.7c0,0.2-0.2,0.3-0.2,0.4c-0.2,0.1-0.3,0.2-0.5,0.1c-0.2-0.2-0.3-0.4-0.2-0.7
				C56.8,26.2,57.3,26.4,57.5,26.7"/>
		</g>
		<g>
			<path class="st0" d="M119.7,26.6c0,0.2-0.3,0.4-0.5,0.7c-0.2,0-0.5-0.1-0.5-0.3c0-0.2,0.2-0.4,0.3-0.5
				C119.2,26.4,119.5,26.4,119.7,26.6"/>
		</g>
		<g>
			<path class="st0" d="M121.7,27c0,0.2,0,0.4-0.2,0.7c-0.3,0-0.5,0-0.7-0.1s-0.2-0.3-0.2-0.5c0.2-0.2,0.5-0.3,0.7-0.3
				C121.5,26.8,121.7,26.9,121.7,27"/>
		</g>
		<g>
			<path class="st0" d="M55.2,27.6c0.2,0.2-0.2,0.2-0.2,0.3c-0.2,0.1-0.3,0.1-0.5,0s-0.2-0.4-0.2-0.5C54.7,26.9,55.2,27.3,55.2,27.6
				"/>
		</g>
		<g>
			<path class="st0" d="M120.2,28v0.3c-0.7,0.3-1.6,0.3-2.1-0.1c-0.3-0.3-0.7-0.4-1-0.7c0-0.3,0.5-0.2,0.8-0.3
				C118.7,27.4,119.2,28,120.2,28"/>
		</g>
		<g>
			<path class="st0" d="M56.5,27.8c0,0.2-0.2,0.3-0.2,0.4c-0.2,0.2-0.3,0.1-0.5,0.1c-0.2-0.2-0.3-0.4-0.2-0.7
				C56,27.4,56.3,27.6,56.5,27.8"/>
		</g>
		<g>
			<path class="st0" d="M58.8,28c0,0.2-0.2,0.4-0.3,0.5c-0.2,0.1-0.3,0-0.5-0.1s-0.3-0.3-0.2-0.5C58.1,27.5,58.6,27.7,58.8,28"/>
		</g>
		<g>
			<path class="st0" d="M88.7,29.1c0,0.5-0.8-0.1-0.7,0.7c0,0.4,0.2,1.1,0.5,1.4c0.2,0.3,0.2,0.9,0,1.3c-0.2,0.4-0.5,0.7-1,0.9
				c-0.7-0.1-1.8,0.3-2.1-0.5c-0.2-0.4-0.3-0.8-0.3-1.2c0-0.1,0.2-0.1,0.2-0.2s-0.2-0.2-0.2-0.4c0.8-0.1-0.3-0.9,0.3-0.9
				c0.7,0.5,1.6,0.4,2.1,1.1c0.2,0.1,0.2,0.2,0.3,0.3c0-0.7-0.3-1.3-0.5-2c0-0.3,0-0.7,0.3-0.9C88.2,28.4,88.6,28.8,88.7,29.1"/>
		</g>
		<g>
			<path class="st0" d="M61.1,28.9c0,0.3-0.2,0.4-0.3,0.5c-0.3,0.1-0.3-0.1-0.5-0.2c0-0.3,0.2-0.4,0.3-0.5
				C60.8,28.7,60.9,28.8,61.1,28.9"/>
		</g>
		<g>
			<path class="st0" d="M77.1,29.2c0.3,1,0.2,2.1-0.3,2.9c0,0.2,0.2,0.5-0.2,0.5c-0.7-1-0.2-2.4,0-3.4C76.7,29,77.1,28.9,77.1,29.2"
				/>
		</g>
		<g>
			<path class="st0" d="M99.3,29.7c0.5,0.8,0.5,1.7,0.2,2.5l-0.3,0.2c-0.2-0.7-0.5-1.2-0.5-1.9c0.2-0.5,0.3-1,0.3-1.4
				C99.3,29,99.3,29.4,99.3,29.7"/>
		</g>
		<g>
			<path class="st0" d="M63.1,30c-0.2,0.3-0.7,0.4-0.8,0.7c-0.7,0.4-1.6,0.5-2.3,0.4c0.7-1,1.6-1.5,3-1.3
				C62.9,29.9,63.1,29.9,63.1,30"/>
		</g>
		<g>
			<path class="st0" d="M52.4,31c1,0.7,1.1,1.6,1.8,2.5c0,0.1,0.3,0.2,0.2,0.3c-0.2,0.2-0.3-0.1-0.7-0.1c-1-0.4-1.6-1.5-1.6-2.6
				C52,31,52.2,31,52.4,31"/>
		</g>
		<g>
			<path class="st0" d="M98.3,31.7c0,0.3,0,0.5-0.2,0.7c-0.3,0-0.5-0.1-0.7-0.3c0-0.2,0.2-0.3,0.2-0.4
				C97.8,31.4,98.1,31.5,98.3,31.7"/>
		</g>
		<g>
			<path class="st0" d="M109.3,33.1c0-0.5,0.2-1,0.2-1.4c0.2-0.2,0.2-0.3,0.2-0.5c0.5-0.9,1.8-0.7,2.8-0.5c0.5,0.2,1,0.2,1.3,0.3
				c0.2-0.1,0.5-0.2,0.7-0.1c0.8-0.5,0.3-1.4,0.3-2.2l-0.3-0.9c0-0.1-0.2-0.3-0.2-0.4c-0.2-0.2-0.3-0.5-0.5-0.8
				c-0.3-1.2-1.1-1.9-2-2.7c-1.3-1.7-3.5-2.7-5.4-3.4c-2.1-0.8-4.1,0.2-6.1,0.9c-0.5-0.2-0.8-0.7-1-1.1c0-1,0.2-2,0.5-2.8
				c0.2-0.7,0.5-1.1,0.8-1.7c0.3-1.4,0.8-2.9,1-4.5c0-1-0.7-1.6-1.5-2.1c-0.5-0.1-1-0.1-1.3,0.2c-0.3,0.8-1.2,1.2-1.6,1.5
				c-0.2,0.4,0.5,0.2,0.7,0.3c0.5,0.1,1.2,0,1.6,0.3c0,1.1-0.5,1.8-1.2,2.7c-0.8,1.3-1.8,2.6-2.3,4l-0.2-0.1l0.2,6.4
				c0.8,1.4,1.8,2.9,3.5,3.5c0.8,0.7,1.8,1.5,3,0.9c0.7-0.2,0.7,0.7,1,1c0.2,1-0.5,1.6-0.5,2.6l-0.7,1.4c-0.8,1.5-1.5,3.2-2.6,4.5
				c-0.5,0-0.7,0.3-1.2,0.4c-0.2,0.2-0.5,0-0.8,0.1c-0.8,0.3-2,0.2-2.5,1c0,0,0.2,0,0.2,0.1c1.6,0,3.3,0.1,5.1,0
				c0.2-0.1,0.3-0.2,0.3-0.4c-0.2-0.4,0.2-0.9,0.3-1.2c0.2-0.7,0.5-1.1,0.7-1.6c0.7-1.1,1.3-2.2,1.8-3.2l0.8-1.4
				c0.2-0.4,0.5-1,0.8-1.4c0.2-0.2,0.3-0.4,0.5-0.7c0-0.3-0.2-0.4-0.3-0.7c0.2-0.1,0.5-0.1,0.8-0.1c0.5,0.3,1.3,1,1.3,1.7l0.3,0.7
				V32v1l0.2,0.8c0.2,1.3-0.2,2.6-0.3,3.8c-0.3,1.5-2.1,1.4-3.5,1.7c-0.2,0.2-0.8,0.1-0.8,0.7c1.5,0.2,3.3,0.1,4.9,0
				c0.2,0,0.3-0.3,0.3-0.5c0.2-0.3,0.5-0.7,0.3-1c-0.3-0.3,0-1-0.2-1.4c0.2-0.1,0.2-0.3,0-0.5c0.3-0.8,0.2-1.6,0.3-2.4L109.3,33.1z"
				/>
		</g>
		<g>
			<path class="st0" d="M122.1,32.2c-0.8,1.1-1.8,2.5-3.3,2.9c0,0-0.2,0-0.2-0.1c0.8-1,1.3-2.4,2.6-2.7
				C121.7,32.2,121.8,32.1,122.1,32.2"/>
		</g>
		<g>
			<path class="st0" d="M51,33.4c-0.2,0.1,0,0.3-0.2,0.4c-0.3,0.1-0.5-0.1-0.7-0.2c0-0.3,0.2-0.5,0.3-0.7C50.9,33,51,33.1,51,33.4"
				/>
		</g>
		<g>
			<path class="st0" d="M58.6,33.8c0,0.2-0.2,0.2-0.3,0.2c-1.2,0.4-2.3,0.1-3-0.8V33C56.5,33.4,57.6,33.1,58.6,33.8"/>
		</g>
		<g>
			<path class="st0" d="M52.5,33.5v0.3c-0.2,0.2-0.3,0.3-0.7,0.2c-0.2,0-0.2-0.1-0.3-0.3c0-0.2,0.3-0.4,0.5-0.4
				C52.2,33.2,52.4,33.2,52.5,33.5"/>
		</g>
		<g>
			<path class="st0" d="M76.9,33.6c0,0.2-0.2,0.3-0.3,0.4c-0.2,0.1-0.5,0-0.5-0.2c-0.2-0.1,0-0.4,0.2-0.4
				C76.4,33.2,76.9,33.4,76.9,33.6"/>
		</g>
		<g>
			<path class="st0" d="M123.1,33.7c0,0.2-0.2,0.3-0.3,0.5c-0.2,0.1-0.3,0-0.5-0.1s-0.2-0.2-0.2-0.4s0.3-0.3,0.5-0.3
				C122.8,33.5,123,33.6,123.1,33.7"/>
		</g>
		<g>
			<path class="st0" d="M124.8,33.6c0.2,0.2,0,0.4-0.2,0.5c0,0.2-0.2,0.2-0.3,0.2c-0.2-0.2-0.5-0.2-0.5-0.5c0-0.1,0.3-0.3,0.5-0.4
				C124.5,33.2,124.6,33.6,124.8,33.6"/>
		</g>
		<g>
			<path class="st0" d="M50.1,34.3c0,0.1-0.2,0.2-0.2,0.4c-0.2,0-0.3,0.1-0.5,0.1c-0.2-0.1-0.3-0.2-0.3-0.4s0.2-0.4,0.3-0.5
				C49.7,34,49.9,34.1,50.1,34.3"/>
		</g>
		<g>
			<path class="st0" d="M104.7,34.3c0.2,0.1,0.2,0.2,0.2,0.3c-0.2,0.2-0.5,0.4-0.7,0.2c-0.2-0.1-0.3-0.3-0.3-0.5
				C104,34.1,104.5,34,104.7,34.3"/>
		</g>
		<g>
			<path class="st0" d="M54.2,34.7c0,0.2-0.2,0.4-0.3,0.4c-0.3,0-0.3-0.2-0.5-0.3c0-0.2,0-0.4,0.2-0.5
				C53.8,34.1,54.2,34.3,54.2,34.7"/>
		</g>
		<g>
			<path class="st0" d="M51.7,34.8c0,0.2-0.2,0.4-0.3,0.5c-0.3,0.1-0.5-0.1-0.7-0.3c0-0.2,0.2-0.5,0.5-0.7
				C51.4,34.3,51.5,34.7,51.7,34.8"/>
		</g>
		<g>
			<path class="st0" d="M106.5,34.7c0,0.3,0,0.5-0.3,0.7c-0.3,0.1-0.5-0.1-0.7-0.3c0.2-0.2,0.2-0.5,0.5-0.5
				C106.2,34.4,106.3,34.6,106.5,34.7"/>
		</g>
		<g>
			<path class="st0" d="M52.9,34.8c0.2,0.2,0,0.3,0,0.4c-0.2,0-0.3,0.1-0.5,0.1c0-0.1-0.3-0.2-0.3-0.3c0-0.3,0.2-0.4,0.3-0.5
				C52.7,34.5,52.9,34.6,52.9,34.8"/>
		</g>
		<g>
			<path class="st0" d="M121.7,35c0,0.2-0.2,0.3-0.5,0.4c-0.2,0.1-0.3-0.1-0.5-0.2v-0.4C121,34.3,121.7,34.6,121.7,35"/>
		</g>
		<g>
			<path class="st0" d="M123.6,35.1c0,0.3-0.3,0.4-0.7,0.4c-0.2-0.1-0.5-0.2-0.3-0.5c0.2-0.1,0.2-0.2,0.3-0.2
				C123.3,34.7,123.6,34.9,123.6,35.1"/>
		</g>
		<g>
			<path class="st0" d="M111.3,35.3c0.2,0.3-0.2,0.4-0.3,0.5c-0.3,0-0.3-0.1-0.5-0.1c-0.2-0.3,0-0.7,0.3-0.8
				C111,35,111.1,35.1,111.3,35.3"/>
		</g>
		<g>
			<path class="st0" d="M104,35.6c0.2,0,0.2,0.2,0.2,0.3c-0.2,0.1-0.3,0.3-0.7,0.2c-0.2-0.1-0.3-0.3-0.2-0.5
				C103.4,35.3,104,35.3,104,35.6"/>
		</g>
		<g>
			<path class="st0" d="M105.5,35.8c0.2,0.2,0,0.3-0.2,0.4c-0.2,0.2-0.3,0-0.5,0c-0.2-0.1-0.2-0.3-0.2-0.4c0.2-0.1,0.3-0.2,0.3-0.2
				C105.4,35.6,105.5,35.6,105.5,35.8"/>
		</g>
		<g>
			<path class="st0" d="M61.4,35.9c0.2,0.1,0,0.3,0,0.4c-0.2,0.2-0.5,0.3-0.7,0.2c-0.3-0.1-0.3-0.5-0.2-0.8c0.2,0,0.2-0.2,0.3-0.2
				C61.1,35.6,61.3,35.8,61.4,35.9"/>
		</g>
		<g>
			<path class="st0" d="M114.1,36c0,0.2-0.2,0.3-0.5,0.4c-0.2,0.1-0.3-0.2-0.5-0.4c0-0.1,0.2-0.2,0.2-0.3
				C113.6,35.4,113.9,35.8,114.1,36"/>
		</g>
		<g>
			<path class="st0" d="M112.6,36c0.2,0.2-0.2,0.3-0.2,0.5c-0.3,0-0.5,0-0.7-0.1s-0.2-0.3-0.2-0.4c0.2-0.1,0.3-0.3,0.5-0.3
				C112.3,35.6,112.6,35.8,112.6,36"/>
		</g>
		<g>
			<path class="st0" d="M124.5,36.3c0,0.3-0.5,0.1-0.7,0.2c-1.1,0.7-2.5,0.2-3.6-0.2c0.2-0.3,0.5-0.2,0.8-0.3c1-0.8,2.1,0.1,3.3,0.2
				L124.5,36.3z"/>
		</g>
		<g>
			<path class="st0" d="M53.2,36L53,36.1c-0.8,0.7-2.1,1-3.3,0.7l-0.2-0.2c1-0.7,2.3-0.9,3.6-0.7V36H53.2z"/>
		</g>
		<g>
			<path class="st0" d="M116.7,36.1c0,0.2-0.2,0.4-0.3,0.5c-0.2,0.1-0.5,0-0.7-0.3c0-0.2,0.2-0.4,0.3-0.4
				C116.2,35.9,116.5,35.9,116.7,36.1"/>
		</g>
		<g>
			<path class="st0" d="M57.8,36.2c0,0.2,0,0.4-0.3,0.5c-0.2,0.1-0.5-0.1-0.5-0.3c-0.2-0.3,0-0.3,0.2-0.5
				C57.5,35.8,57.6,36,57.8,36.2"/>
		</g>
		<g>
			<path class="st0" d="M56,36.4c0.2,0.1,0,0.2-0.2,0.3c0,0.2-0.3,0.2-0.5,0.1c-0.2-0.1-0.3-0.3-0.3-0.7c0.2-0.1,0.3-0.2,0.5-0.2
				C55.7,36,56,36.1,56,36.4"/>
		</g>
		<g>
			<path class="st0" d="M118.5,37c0,0.2-0.2,0.4-0.3,0.4c-0.3,0.1-0.5-0.1-0.5-0.2c-0.2-0.1-0.2-0.3,0-0.5c0,0,0.3,0,0.3-0.1
				C118.4,36.5,118.5,36.7,118.5,37"/>
		</g>
		<g>
			<path class="st0" d="M54,36.6c0.2,0.2,0,0.3,0,0.5c-0.2,0.4-0.5,0.7-0.7,1.1c-0.5,0.5-1.1,0.5-1.8,0.8l-0.2-0.2
				C52.2,37.8,52.9,37.1,54,36.6"/>
		</g>
		<g>
			<path class="st0" d="M117.2,37.3c0,0.3-0.2,0.3-0.3,0.4c-0.3,0-0.5-0.1-0.5-0.3c-0.2-0.2,0.2-0.3,0.3-0.4
				C116.9,36.8,117.2,37.1,117.2,37.3"/>
		</g>
		<g>
			<path class="st0" d="M57.1,37.3C56.9,37.3,57.1,37.4,57.1,37.3c0,0.4-0.2,0.4-0.3,0.6c-0.3,0-0.5-0.1-0.7-0.3
				c0-0.2,0-0.5,0.3-0.5C56.6,37,57,37.1,57.1,37.3"/>
		</g>
		<g>
			<path class="st0" d="M122,38c0.3,0,0.3-0.3,0.7-0.4c0.2,0,0.5,0.1,0.7,0.3c0,0.3-0.2,0.4-0.3,0.7c-0.3,0.1-0.7-0.2-0.7,0.1
				c0.2,0.1,0.3,0.3,0.3,0.5c0,0.1-0.2,0.1-0.2,0c-0.8-0.3-1.6-0.8-2-1.6c0-0.2-0.5-0.4-0.3-0.5C121,37,121.7,37.6,122,38"/>
		</g>
		<g>
			<path class="st0" d="M124.5,37.2c0.2,0.2,0.2,0.4,0,0.5c-0.2,0.2-0.5,0.2-0.7,0.1c-0.2-0.1-0.3-0.2-0.3-0.4
				c0.2-0.2,0.3-0.2,0.5-0.3C124.1,37,124.3,37.1,124.5,37.2"/>
		</g>
		<g>
			<path class="st0" d="M115.1,38.6c0.2,0.3,0.5,0.8,0.5,1.1c0,0.1-0.2,0.1-0.2,0.1c-0.8-0.5-2-1.1-2.3-2.2
				c-0.2-0.1-0.3-0.2-0.3-0.4c0.6-0.1,1.3,0.4,1.8,0.8C114.7,38.3,114.9,38.4,115.1,38.6"/>
		</g>
		<g>
			<path class="st0" d="M55.7,37.6c0,0.3-0.2,0.4-0.3,0.5c-0.2,0.1-0.3,0-0.5-0.2s0.2-0.5,0.3-0.7C55.3,37.3,55.5,37.5,55.7,37.6"/>
		</g>
		<g>
			<path class="st0" d="M118.4,38.3c0,0.1-0.2,0.2-0.3,0.3c-0.2,0-0.3,0.1-0.5,0c-0.2-0.2-0.3-0.4-0.2-0.5
				C117.7,37.7,118.2,37.9,118.4,38.3"/>
		</g>
		<g>
			<path class="st0" d="M124.8,38.6c0.2,0.3-0.2,0.5-0.3,0.7c-0.3,0.1-0.5-0.1-0.7-0.2c-0.2-0.1,0-0.3,0-0.4
				c0.2-0.2,0.5-0.3,0.7-0.2C124.6,38.5,124.6,38.5,124.8,38.6"/>
		</g>
		<g>
			<path class="st0" d="M106.8,42.2c0,0.3-0.7,0.3-0.8,0.5c-0.8,0.4-1.8,0.4-2.8,0.3v-0.1C104.2,42.2,105.5,41.8,106.8,42.2"/>
		</g>
		<g>
			<path class="st0" d="M68.8,43.4c0,0.2-0.2,0.3-0.3,0.4c-0.2,0-0.3-0.1-0.5-0.3c0-0.2,0.2-0.4,0.3-0.5
				C68.7,42.9,68.8,43.2,68.8,43.4"/>
		</g>
		<g>
			<path class="st0" d="M106.3,43.6c0,0.3-0.2,0.5-0.3,0.7c-0.3,0-0.5-0.1-0.7-0.2c-0.2-0.1,0-0.2,0-0.4
				C105.5,43.2,106.2,43.2,106.3,43.6"/>
		</g>
		<g>
			<path class="st0" d="M111.6,43.7c-0.7,0.4-1.5,1-2.3,1h-1.5v-0.1C108.6,43.5,110.1,43.5,111.6,43.7L111.6,43.7z"/>
		</g>
		<g>
			<path class="st0" d="M61.7,44.4c0,0.2-0.2,0.4-0.3,0.5c-0.3,0-0.5-0.1-0.5-0.2c-0.2-0.3,0-0.5,0.2-0.7
				C61.4,43.8,61.6,44.1,61.7,44.4"/>
		</g>
		<g>
			<path class="st0" d="M63.1,44.7c0,0.1-0.2,0.2-0.2,0.3c-0.2,0-0.3,0.1-0.5,0s-0.2-0.3-0.2-0.4c0.2-0.2,0.3-0.2,0.3-0.3
				C62.7,44.4,62.9,44.5,63.1,44.7"/>
		</g>
		<g>
			<path class="st0" d="M53,47.3c-0.2,0.3-0.7-0.1-1-0.2c-0.8-0.5-0.8-1.5-1.6-2.2c0-0.3,0.3,0,0.5,0c0.2,0.1,0.3,0.2,0.5,0.2
				C52.2,45.7,52.5,46.5,53,47.3"/>
		</g>
		<g>
			<path class="st0" d="M87.6,46.7c-0.2,0.3-0.3,0.7-0.3,1h-0.2c0.2-0.3-0.3-0.7-0.2-1c-0.2-0.3-0.2-0.8-0.3-1.1
				c-0.3-0.4,0.2-0.7,0.3-0.9c0.3,0.1,0.5,0.4,0.8,0.8C87.9,46,87.6,46.3,87.6,46.7 M128.9,37.2c-0.5-0.8-1.2-1.1-2-1.1
				c-0.7,0-1.2,0.4-1.5,1.1c-0.2,0.5,0.2,1.1,0.5,1.4c0.2,0,0.5,0,0.5-0.1c0.2-0.4-0.2-0.4-0.2-0.7c-0.2-0.3,0-0.7,0.2-0.9
				c0.3-0.3,0.8-0.2,1.1-0.2c0.2,0.2,0.5,0.4,0.7,0.8c0.2,0.4,0.2,1,0,1.4c-0.2,0.7-0.8,1.2-1.5,1.3c-2.3,0.3-26,0.2-26,0.2
				c-2.6,0.2-5.9-0.5-8.2,1c-1.2,0.5-1.6,1.7-2,2.8c-0.7,0.5-1.5,1.3-2,2.1l-0.2-0.1c0.2-0.7,0.5-1.2,0.7-1.8
				c0.3-0.5,0.3-1.2,0.7-1.7c1-1.6,1.8-3.3,3.5-4.4c0.7-0.9,1.8-0.8,2.8-0.8c1,0.6,2.3,0.7,3.6,0.6v-0.2c-0.3-0.3-1-0.4-1.3-0.8
				c-1.2-0.5-2.1,0.1-3.1,0.1C95,37.1,95,37.1,95,37c1-0.8,2.1-1.2,3.3-1.7c0.8-0.4,1.8-0.8,2.8-1.1c0.3,0,0.8-0.3,1.2-0.1l1.3-0.3
				h0.2c1.3-0.3,2.8,0,4.1,0l0.2,0.1l1.2,0.3c0.5,0.1,0.7,0.7,1.1,0.7c0.3-0.4-0.2-0.5-0.3-0.8c0.5-0.1,1.2,0,1.6,0.2l-0.2,0.3
				c-0.2,0.3,0,0.5,0.3,0.5c0.2,0.1,0.3,0,0.3-0.1c0.5-0.2,0-0.4,0.2-0.7c2,0.3,3.8,0.8,5.6,1.5c0.5,0.2,0.8,0.5,1.5,0.5
				c-0.7-0.5-1.3-0.8-2-1.1c-0.5-0.2-1.1-0.2-1.5-0.6c0.2-0.1,0.3,0,0.3-0.1c1-0.1,1.6-0.8,2.3-1.5c0-0.1,0.3-0.1,0.3-0.3
				c-0.2-0.2-0.7,0.1-1,0.1c-1,0.2-1.5,1.5-2.6,1.7c-1.3-0.3-2.6-0.7-4-1c-0.7-0.1-1.3-0.2-2-0.4l-1.5-0.1h-2.6
				c0-0.1-0.2-0.1-0.2-0.2c1-0.2,1.8-0.8,2.8-1l6.9-3.2c0.8-0.7,1.5-1.4,2-2.2c0-0.2,0-0.4-0.3-0.5c-0.2,0-0.3,0-0.5,0.1
				c-0.3,0.2,0,0.5,0,0.9c-0.3,0.4-0.8,0.8-1.2,1c-0.2,0-7.2,3.3-7.2,3.3c-1,0.4-2,0.9-3.1,1.1l-1.5,0.3c-0.2,0.3-0.3,0.4-0.7,0.5
				c-0.5,0.1-0.8,0.3-1.2,0.3c-3.5,1.3-6.9,2.7-9.5,5.4c0-0.3,0.2-0.8,0.2-1.1c0-0.4,0-0.9-0.3-1.2c0-0.1-0.2-0.5-0.2-0.8L90.8,36
				c-0.3,0.5-0.5,1.6-0.2,2.2c0,0.4,0.3,1,0,1.4c-1.2,1.5-2,3.4-2.8,5.1c-0.3,0-0.3-0.3-0.5-0.7c0.8-1.1,1.5-2.4,1.8-3.8
				c0.2-0.1,0-0.4,0.2-0.7c0-0.4,0.3-0.8,0.2-1.2c0.2-0.5-0.8-1.1-0.2-1.4l-0.5,0.2c-1.2,1.5,0.5,3.7-0.8,5.1v0.1
				c-0.3,0.4-0.5,0.9-1,1.2c-0.7-0.2-0.8-1-1.2-1.4c-0.7-0.5-0.7-1.7-0.3-2.5c0.3-0.8-0.2-1.4-0.2-2.1L85,37.4
				c-0.7,0.8-0.8,2.1-0.3,3.1c0.3,0.4,0.3,1.1,0.7,1.5c0.2,0.8,0.7,1.2,1.1,2c0,0.2-0.2,0.2-0.3,0.4c-0.3-0.2-0.2-0.7-0.5-0.9
				c-0.8-1.7-2-3.3-3.3-4.8c0-0.2-0.3-0.4-0.2-0.7c0.5-0.4,0.7-1.4,0.3-2c0-0.2-0.2-0.3-0.2-0.4H82c0.2,0.9-0.5,1.7-0.2,2.7
				c-2.8-2-5.8-3.8-8.7-5.2l-0.2,0.7c0.7,0.2,2.8,1.4,2.8,1.4c0.8,0.3,1.6,0.9,2.5,1.4c3.6,2,5.9,5.2,7.6,8.8c0,0.3,0.3,0.7,0,0.9
				c-0.5-0.8-1.3-1.3-2-2c-0.2-1.2-0.8-2.4-2-2.9c-0.3-0.5-1.2-0.7-1.8-0.8l-9.5-0.1c-7.6-0.1-14.6,0.2-22.2,0.1
				c-1.2-0.1-2.5-0.4-2.8-1.5c-0.2-0.4-0.2-1.1,0-1.5c0.3-0.4,0.8-0.7,1.3-0.7s0.8,0.4,1,0.8c0,0.3-0.3,0.7-0.5,0.9
				c0,0.1,0.2,0.3,0.3,0.2c0.3-0.1,0.7-0.4,0.7-0.8c0-0.2,0.2-0.4,0-0.7c-0.2-0.5-0.8-0.9-1.3-1c-0.7-0.1-1.3,0.1-1.6,0.5
				c-0.7,0.5-0.7,1.5-0.5,2.2c0.5,1.2,1.6,2,2.8,2.2L73,41.3c2.5,0.1,5.3-0.3,7.7,0.1c0.8,0.3,1.8,1,2.1,2.1h-0.2
				c-2.1-1.3-4.8-1.9-7.4-1.5c-1.2,0-2,0.3-3,0.7c-0.5,0.1-1-0.2-1.3-0.4c-0.8-0.9-2.5-0.9-3.8-0.5c0,0.1,0,0.2,0.2,0.2
				c1.2-0.1,2,1,3.1,1.1c0.2,0.1,0.5-0.2,0.7,0c-1.2,0.5-2.3,1.3-3.6,1.6c-0.3-0.1-0.5-0.4-0.8-0.7c-0.5-0.5-1.5-0.3-2.1-0.3
				c-0.2,0-0.5-0.1-0.7,0c0.3,0.4,0.7,0.7,1.1,0.9c0.7,0.2,1.5-0.1,2,0.3c-0.2,0.2-0.3,0.2-0.5,0.3c-1.2,0.5-2.3,1.6-3.6,1.5
				c-1.5,0.2-2.8-0.2-3.8-1.2c-0.5-1.1-1.5-1.6-2.6-1.5c-0.2,0-0.2,0-0.2,0.1c0.5,0.3,1,1.1,1.6,1.4c0.3,0.4,1,0,1.3,0.5
				c0.5,0.3,1.2,0.7,1.6,0.8c0.5,0.1,1,0.2,1.5,0.3L62,47.2c-2.2,0.8-5,1-7.7,0.8c-0.7,0-1.5-0.3-2.3-0.2c0.2,0.1,0.5,0.2,0.7,0.3
				c-0.2,0.1-0.5,0.2-0.7,0.2c-0.3,0.1-0.7,0.1-1,0.2c-0.5,0-0.8,0.2-1.2,0.3c-0.5,0.4-1,1-1.5,1.2c0,0.1,0,0.2,0.2,0.2
				c0.5-0.2,1,0,1.5-0.2c1-0.1,1.5-1,2.1-1.4c0.7-0.5,1.6-0.4,2.6-0.3c0.5,0.1,0,0.3,0.2,0.7c0.2,0.2,0.3,0.4,0.7,0.3
				c0,0,0-0.1,0.2-0.1c0.2-0.2,0.2-0.4,0-0.7c0.3-0.2,0.8,0,1.2-0.1c1-0.1,2-0.2,3-0.3c0.2,0,0.3-0.1,0.5,0c0,0.2-0.3,0.2-0.2,0.5
				c0,0.2,0.3,0.3,0.5,0.4c0.3-0.1,0.5-0.3,0.3-0.7c0-0.2-0.2-0.2-0.3-0.3c0.5-0.2,1.2-0.3,1.6-0.5c0.5-0.1,0.8-0.2,1.2-0.4
				c0.3,0,0.7-0.3,1-0.2c-0.2,0.4-0.3,0.9-0.7,1.3c-0.3,1.4-0.7,3.2,0,4.6c0.2,0,0.2-0.1,0.2-0.1c-0.5-1.4-0.2-2.9,0.3-4.2
				c0.3-2.3,2.6-2.9,4.3-3.7v0.1c-0.3,1.1-1,2.2-1,3.6c0.2,0.2,0,0.4,0,0.7c0.5-0.2,0.8-0.8,1-1.2c0.2-1.2-0.5-2.7,0.8-3.6
				c2-0.8,4.1-1.9,6.6-2c0,0.1,0.2,0,0.2,0.1c-0.5,0.7-1.2,1.2-1.5,1.9C74,45.6,74,47.6,74.5,49c0.2,0.8-0.5,1.2-0.8,1.9
				c-0.2,0.2-0.3,0.7-0.5,0.9l0.7,0.1c0.3-0.5,0.8-1.1,0.8-1.7c0,0.2,0.3,0.4,0.5,0.5c0.2-0.3-0.2-0.5-0.2-0.9
				c0.3-0.2,0.7,0.3,1,0.4c0.5,0.1,1,0.3,1.5,0.3l0.2-0.1c-0.5-1-1.6-1.1-2.6-1.2c-0.5-0.8-0.5-1.8-0.5-2.9c0.2-0.5,0.2-1.1,0.5-1.6
				c0.2-0.3,0.5-0.7,0.8-1c0.3-0.4,1-0.8,1.6-0.9v0.1c-0.7,0.5-0.8,1.3-1.2,2c-0.5,0.7-0.7,1.5-0.2,2.3c0,0.3,0,0.9,0.3,1.1
				c0.3-0.4,0.3-1.1,0.7-1.6c-0.2-0.9-0.7-1.6-0.2-2.5c0.2-0.7,0.8-0.9,1.3-1.2c1.5-0.1,2.8,0.7,3.9,1.2c0.3,0.2,0.8,0.3,0.8,0.8
				c0,0.7-0.5,1.4-1,1.7c-0.7,0.4-1.6,0.4-2.3-0.1c-0.5-0.3-0.7-1-0.5-1.5c0.3-0.3,0.7-0.7,1.1-0.4c0.3,0.1,0.5,0.4,0.8,0.2
				c0.2-0.1,0.2-0.3,0.2-0.4c-0.3-0.1-0.5-0.5-0.8-0.5c-0.5-0.1-1.2-0.1-1.5,0.2c-0.5,0.5-0.7,1.2-0.5,1.9c0.2,0.9,0.8,1.4,1.5,1.7
				c1.3,0.2,2.5-0.1,3.3-1.2c0.3-0.3,0.3-0.7,0.5-1.1c1.3,0.8,2.3,2.1,2.8,3.5v1l0.8,0.1c0-0.2,0-0.4,0.2-0.7
				c0.3-1.7,1.3-3.2,2.6-4.3c0.5-0.2,0.3,0.4,0.5,0.5c0.3,1,1.3,1.7,2.3,2.1c1,0.1,2-0.1,2.8-1c0.3-0.7,0.7-1.5,0.2-2.2
				c-0.3-0.4-1-0.7-1.5-0.7c-0.7,0-1.2,0.4-1.5,1c0,0.1,0,0.4,0.2,0.5c0.2,0,0.3,0,0.5-0.2c0-0.3,0.3-0.5,0.7-0.8
				c0.3-0.1,0.7,0,0.8,0.2c0.3,0.2,0.3,0.5,0.3,1s-0.3,1-0.8,1.2c-0.8,0.4-1.8,0.2-2.5-0.2c-0.3-0.3-0.5-0.8-0.8-1.1
				c0-0.4-0.2-0.9,0-1.3c1.2-0.7,2.5-1.1,3.8-1.3c0.5,0.1,1,0.5,1.3,0.9c1.3,1.3-0.2,3,0.7,4.4c0.3,0,0.3-0.4,0.5-0.7
				c0.3-1-0.2-2-0.5-2.9c-0.2-0.5-0.5-1.1-1-1.5c0.2-0.1,0.3-0.1,0.3-0.1c0.7,0.4,1.1,0.9,1.6,1.4c0.8,1.2,1.2,2.7,1,4.2
				c-0.2,0.9-1,1.2-1.6,1.5c-0.3,0.2-0.7,0.4-0.7,0.8c0.3,0.2,0.7,0,1-0.1c0.5-0.2,0.8-0.8,1.2-1.1v0.1c0,0.3-0.2,0.8,0.2,0.8
				c0.2-0.3,0.2-0.9,0.2-1.3c0.3,0.4,0.5,0.9,0.5,1.3c0.3,0.5,0.7,1.1,1.3,1.2c0.2-0.2,0-0.4,0-0.7c-0.2-0.7-0.7-1-1-1.5
				c-1-1.2-0.5-3.2-1.3-4.6c-0.2-0.8-0.8-1.3-1.3-2v-0.1c1.3,0,2.5,0.4,3.6,0.7c1.3,0.7,3.5,0.5,4.1,2.4c0.3,1,0.8,2,1.5,2.8
				l0.2-0.1c0.2-0.2,0.2-0.7,0-1c-0.2-1.3-1.3-1.5-2-2.7l0.2-0.1c0.5,0.2,1.1,0.4,1.8,0.7c2.1,0.5,3.6,2.6,3.8,4.8
				c0,1.6-0.3,3-1,4.5c0,0.2-0.3,0.4-0.2,0.7c0.3-0.2,0.3-0.7,0.5-0.9c0.8-1.4,1.3-3.4,0.8-5.2c0-0.3-0.3-0.7-0.2-1
				c0.2,0.2,0.3,0.2,0.5,0.2c0-0.1,0.3-0.1,0.5-0.2v-0.5c-0.2-0.2-0.5-0.2-0.8-0.1c-0.2,0.1-0.3,0.3-0.3,0.5c-0.3-0.4-0.5-1-1-1.4
				h0.2c1.2,0.3,2.1,0.9,3.5,1.2c0.2,0.2,0.5,0.3,0.8,0.3c1,0.4,2.1,0.5,3.3,0.8c0.7,0,1.3,0.3,2.1,0.1c-0.3-0.3-1,0-1.3-0.2
				c-1.8-0.2-3.5-0.7-5.1-1.3c0-0.1,0.2-0.1,0.2-0.1c0.3-0.1,0.5-0.3,0.5-0.7c-0.2-0.1-0.3-0.2-0.7-0.2c-0.2,0-0.3,0.2-0.3,0.4
				s0.2,0.4,0.3,0.4c0,0.1-0.2,0.1-0.2,0.1c-0.8-0.4-1.7-0.8-2.5-1.1c-0.2-0.1-0.5-0.3-0.7-0.3c-0.7-0.3-1.3-0.7-1.8-0.9
				c-1.6-0.9-3.6-1.3-5.3-2c-0.5-0.1-0.8-0.2-1.1-0.3c-0.7-0.2-1.3-0.3-2-0.5c-2.3-0.5-5.3-0.5-7.1,0.7c-0.3-0.1-0.5,0.3-0.7,0.1
				c0.5-1.5,2.1-2,3.5-2c10.5-0.1,20.2-0.2,30.6-0.4c1.2,0,2.3-0.3,3-1.4C129.2,38.9,129.2,37.8,128.9,37.2"/>
		</g>
		<g>
			<path class="st0" d="M115.7,45.1c0,0.1,0.2,0.1,0.2,0.2c-1,0.9-2.3,1.1-3.5,1.1c-0.2,0.1-0.3,0.1-0.3,0.1c-0.2,0-0.2-0.1-0.2-0.2
				C112.9,45.3,114.4,44.8,115.7,45.1"/>
		</g>
		<g>
			<path class="st0" d="M111.6,45.5c0,0.3-0.2,0.5-0.5,0.8c-0.3-0.1-0.5-0.2-0.5-0.4c-0.2-0.2,0-0.3,0.2-0.4
				C111,45.2,111.4,45.2,111.6,45.5"/>
		</g>
		<g>
			<path class="st0" d="M62.1,45.7c0.2,0.1,0,0.3-0.2,0.5c0,0.1-0.3,0.1-0.3,0.1c-0.2,0-0.3-0.2-0.3-0.4s0-0.3,0.3-0.4
				C61.7,45.4,61.9,45.3,62.1,45.7"/>
		</g>
		<g>
			<path class="st0" d="M57.5,47.3v0.2c-0.7,0.1-1.2,0-1.6-0.4c-0.3-0.5-0.8-1-1.5-1.3c0-0.1-0.2-0.1,0-0.2
				C55.7,45.6,56.5,46.6,57.5,47.3"/>
		</g>
		<g>
			<path class="st0" d="M119.7,45.5c-0.5,0.9-1.2,2.1-2.1,2.4c-0.2,0-0.3,0.3-0.5,0.1c0.3-1,1.3-2.1,2.3-2.5H119.7z"/>
		</g>
		<g>
			<path class="st0" d="M63.6,45.9c0.2,0.3-0.2,0.3-0.3,0.5c-0.2,0-0.3-0.1-0.3-0.3c-0.2-0.2,0-0.3,0.2-0.4
				C63.2,45.5,63.6,45.7,63.6,45.9"/>
		</g>
		<g>
			<path class="st0" d="M123,46.1c-0.2,0.3-0.2,0.8-0.3,1.2c-0.5,0.5-1,1.2-1.8,1.4c-0.2-0.3,0.2-0.5,0.3-0.8
				c0.3-0.9,0.8-1.7,1.6-2.1L123,46.1z"/>
		</g>
		<g>
			<path class="st0" d="M49.4,46.3c0,0.1,0.2,0.3,0,0.5c-0.2,0.1-0.3,0.2-0.7,0.1c-0.2-0.1-0.3-0.4-0.2-0.7
				C48.7,46.1,49.2,46,49.4,46.3"/>
		</g>
		<g>
			<path class="st0" d="M47.9,46.6c0,0.1,0.2,0.2,0,0.3c0,0.1-0.2,0.3-0.3,0.3c-0.2,0-0.5-0.1-0.5-0.3c-0.2-0.2,0-0.4,0.2-0.5
				C47.6,46.3,47.8,46.4,47.9,46.6"/>
		</g>
		<g>
			<path class="st0" d="M51,46.7c0,0.2,0,0.5-0.3,0.7c-0.3,0.1-0.5-0.1-0.7-0.3c0-0.2,0-0.4,0.3-0.5C50.6,46.5,50.9,46.5,51,46.7"/>
		</g>
		<g>
			<path class="st0" d="M55.3,47.1c-0.2,0.2,0,0.4-0.3,0.5c0,0.1-0.3,0.1-0.5,0c0-0.1-0.3-0.2-0.2-0.4c0.2-0.1,0.3-0.2,0.5-0.3
				C55,47,55.2,46.9,55.3,47.1"/>
		</g>
		<g>
			<path class="st0" d="M125.4,47.3c0,0.2-0.2,0.4-0.3,0.4c-0.3,0-0.5-0.1-0.7-0.3c0-0.3,0.2-0.4,0.3-0.5
				C125.1,46.9,125.4,47,125.4,47.3"/>
		</g>
		<g>
			<path class="st0" d="M120.7,47.4c0,0.2-0.2,0.3-0.3,0.4c-0.3,0.2-0.6-0.1-0.6-0.3c0-0.3,0.2-0.4,0.3-0.5
				C120.3,47,120.5,47.2,120.7,47.4"/>
		</g>
		<g>
			<path class="st0" d="M124,47.4c0,0.1-0.2,0.3-0.3,0.4c-0.2,0-0.3,0-0.5-0.1c-0.3-0.2-0.2-0.4,0-0.5C123.5,47,123.8,47.1,124,47.4
				"/>
		</g>
		<g>
			<path class="st0" d="M48.7,47.8c0,0.2,0,0.5-0.3,0.7c-0.2,0-0.5-0.1-0.5-0.4c-0.2-0.2,0-0.4,0.2-0.5
				C48.4,47.5,48.6,47.6,48.7,47.8"/>
		</g>
		<g>
			<path class="st0" d="M119.3,48c0.2,0.3,0,0.6-0.3,0.8c-0.2,0-0.3-0.1-0.5-0.2c0-0.1-0.2-0.4,0-0.6
				C118.7,47.6,119.2,47.8,119.3,48"/>
		</g>
		<g>
			<path class="st0" d="M62.7,48.4c0.2,0.3-0.2,0.3-0.3,0.5c0,0-0.3,0-0.3-0.1c-0.2-0.1-0.3-0.3-0.2-0.5c0-0.1,0.2-0.2,0.3-0.2
				C62.4,47.9,62.6,48.3,62.7,48.4"/>
		</g>
		<g>
			<path class="st0" d="M124.9,48.6c0.2,0.1,0,0.2,0,0.3c-0.2,0.2-0.5,0.2-0.7,0.1c-0.2-0.1-0.2-0.3-0.2-0.5c0-0.1,0.2-0.2,0.3-0.3
				C124.6,48.2,124.9,48.3,124.9,48.6"/>
		</g>
		<g>
			<path class="st0" d="M123.5,48.6c0,0.3-0.3,0.5-0.5,0.5c0,0.1-0.2,0-0.3,0.1c0.8,0.4,1.1,1,1.6,1.4v0.2c-0.8,0-1.8-0.2-2.5-1
				c-0.2-0.1-0.5-0.1-0.8-0.3c0.3-0.3,1-0.2,1.5-0.2c0.3-0.3-0.3-0.7,0-1c0.2,0,0.3-0.1,0.5-0.1C123.1,48.4,123.3,48.5,123.5,48.6"
				/>
		</g>
		<g>
			<path class="st0" d="M112.8,48.7c0,0.1-0.2,0.2-0.2,0.4c-0.2,0.1-0.3,0.1-0.5,0s-0.3-0.3-0.3-0.5
				C111.9,48.2,112.6,48.3,112.8,48.7"/>
		</g>
		<g>
			<path class="st0" d="M54.7,49.6c-0.2,0.2-0.3,0.4-0.5,0.4s-0.3-0.1-0.5-0.3c0-0.2,0.2-0.3,0.2-0.4C54.2,49,54.7,49.1,54.7,49.6"
				/>
		</g>
		<g>
			<path class="st0" d="M56.6,49.3c0,0.3-0.3,0.5-0.5,1c-0.3,0.9-1,1.6-2,1.7c-0.2-0.3,0.3-0.5,0.3-0.8c0.5-1,1.3-1.4,2-2L56.6,49.3
				L56.6,49.3z"/>
		</g>
		<g>
			<path class="st0" d="M112.1,49.6c0,0.3-0.2,0.5-0.5,0.7c-0.2,0.1-0.3-0.1-0.5-0.2c-0.2-0.2,0-0.4,0-0.7
				C111.4,49,111.9,49.4,112.1,49.6"/>
		</g>
		<g>
			<path class="st0" d="M113.8,49.8c0,0.3-0.2,0.5-0.5,0.5h-0.2c-0.3-0.1-0.5-0.3-0.5-0.5c0.2-0.1,0.3-0.3,0.5-0.3
				S113.6,49.5,113.8,49.8"/>
		</g>
		<g>
			<path class="st0" d="M60.8,49.8c0,0.2-0.2,0.4-0.3,0.5c-0.3,0-0.5-0.1-0.5-0.3c-0.2-0.2,0.2-0.4,0.2-0.5
				C60.4,49.4,60.6,49.6,60.8,49.8"/>
		</g>
		<g>
			<path class="st0" d="M62.6,49.9c-0.2,0.2-0.3,0.3-0.5,0.4c-0.2-0.1-0.5-0.1-0.5-0.3s0.2-0.4,0.3-0.5
				C62.2,49.5,62.4,49.6,62.6,49.9"/>
		</g>
		<g>
			<path class="st0" d="M119.3,51.8c0.2,0.1,0.3,0.2,0.3,0.3c-0.5,0.2-0.8-0.2-1.2-0.3c-0.7-0.7-1.1-1.3-1.3-2.1
				c0.2-0.2,0.5,0,0.7,0.1C118.5,50.3,119,51,119.3,51.8"/>
		</g>
		<g>
			<path class="st0" d="M120.3,49.9c0,0.1,0,0.3-0.2,0.5c0,0.2-0.5,0.2-0.7,0.1c-0.2-0.1-0.3-0.3-0.2-0.5c0-0.2,0.3-0.2,0.5-0.3
				C120,49.7,120.2,49.8,120.3,49.9"/>
		</g>
		<g>
			<path class="st0" d="M64.9,50.6c0.2,0.2,0.2,0.5-0.2,0.7c-0.2,0-0.5,0-0.7-0.3c0-0.3,0.2-0.3,0.3-0.5
				C64.7,50.3,64.7,50.4,64.9,50.6"/>
		</g>
		<g>
			<path class="st0" d="M113.6,52.3c0.5,0.4,0.7,1.1,0.8,1.9c-0.2,0.1,0,0.3-0.2,0.4c-1.2-0.8-1.5-2-2-3.2v-0.2
				c0.2-0.3,0.3,0.2,0.7,0.2L113.6,52.3z"/>
		</g>
		<g>
			<path class="st0" d="M68.3,51.3L68.3,51.3c-1,0.9-2.5,1.3-3.6,0.5c-0.2,0,0-0.2,0-0.2c0.8-0.2,1.5-0.5,2.3-0.4L68.3,51.3z"/>
		</g>
		<g>
			<path class="st0" d="M62.4,51.5c-1,0.5-1.6,1.6-2.8,1.8c-0.2,0.1-0.3,0.3-0.7,0.2c0.5-1.4,2-2.2,3.5-2.3V51.5z"/>
		</g>
		<g>
			<path class="st0" d="M112.1,52.6c0.2,0.2,0,0.5-0.2,0.7c-0.2,0.1-0.3,0.1-0.5,0c-0.3-0.1-0.3-0.4-0.3-0.5
				c0.2-0.2,0.3-0.2,0.5-0.3C111.8,52.5,111.9,52.5,112.1,52.6"/>
		</g>
		<g>
			<path class="st0" d="M110,52.8c-0.2,0.3-0.7,0.5-1,0.7c-0.8,0.3-1.6-0.1-2.5-0.3c0.2-0.2,0.3-0.1,0.5-0.2
				c0.8-0.2,1.6-0.4,2.6-0.2C109.6,52.7,110,52.7,110,52.8"/>
		</g>
		<g>
			<path class="st0" d="M62.4,53.6c-0.2,0.1-0.2,0.3-0.3,0.4c-0.2,0-0.3,0-0.5-0.1c-0.2-0.2-0.3-0.3-0.2-0.5c0-0.1,0.3-0.2,0.5-0.2
				C62.1,53.2,62.4,53.3,62.4,53.6"/>
		</g>
		<g>
			<path class="st0" d="M63.9,53.8c0,0.1-0.2,0.3-0.3,0.4c-0.2,0.1-0.3,0-0.5-0.1c-0.2-0.2-0.2-0.3-0.2-0.5c0.2-0.1,0.3-0.2,0.5-0.2
				C63.6,53.4,63.9,53.6,63.9,53.8"/>
		</g>
		<g>
			<path class="st0" d="M111.6,54c0,0.2,0,0.3-0.2,0.5c-0.2,0.1-0.3,0.2-0.5,0.1c-0.3,0-0.3-0.2-0.3-0.4c-0.2-0.2,0-0.3,0.2-0.4
				C111.1,53.5,111.4,53.7,111.6,54"/>
		</g>
		<g>
			<path class="st0" d="M112.8,54c0,0.1,0.2,0.2,0,0.3s-0.2,0.4-0.5,0.3c-0.2,0.1-0.2-0.1-0.3-0.2c-0.2-0.2,0-0.7,0.3-0.7
				C112.4,53.7,112.6,53.9,112.8,54"/>
		</g>
		<g>
			<path class="st0" d="M62.9,54.8c0.2,0.2,0,0.5-0.2,0.7c-0.3,0.1-0.7,0.1-0.8-0.2c0-0.3,0-0.7,0.3-0.8
				C62.6,54.4,62.9,54.5,62.9,54.8"/>
		</g>
		<g>
			<path class="st0" d="M64.4,54.7c0,0.8-0.2,1.6-0.8,2.1c-0.5,0-0.8,0.4-1.3,0.1v-0.1C62.9,56,63.9,55.5,64.4,54.7"/>
		</g>
		<g>
			<path class="st0" d="M107.5,55.2c0.2,0.2,0,0.3-0.2,0.4c-0.2,0.2-0.3,0.1-0.5,0c-0.2,0-0.3-0.3-0.2-0.4c0-0.2,0.2-0.3,0.3-0.3
				C107.2,54.9,107.5,55.1,107.5,55.2"/>
		</g>
		<g>
			<path class="st0" d="M67,56.4c0.5,0.7,0.2,1.4,0.5,2.1c-0.5,0.1-0.7-0.4-1-0.7C66,57.1,66,56,65.7,55.1C65.9,55,65.9,55,66,55
				c0.3,0.3,0.7,0.8,1,1.1C66.8,56.3,67,56.3,67,56.4"/>
		</g>
		<g>
			<path class="st0" d="M108.8,55.5c0,0.2-0.2,0.3-0.3,0.4c-0.2,0-0.3-0.1-0.5-0.2c0-0.3,0.2-0.3,0.3-0.5
				C108.5,55,108.8,55.2,108.8,55.5"/>
		</g>
		<g>
			<path class="st0" d="M111.9,57.9c0,0,0,0.2-0.2,0.1h-0.2c-0.7-0.7-1.5-1.4-1.3-2.5h0.2C111.1,56.1,111.9,56.8,111.9,57.9"/>
		</g>
		<g>
			<path class="st0" d="M110,57c0,0.2,0,0.3-0.2,0.5c-0.3,0-0.8,0-0.8-0.4c0-0.2,0.3-0.3,0.3-0.4C109.6,56.5,110,56.8,110,57"/>
		</g>
		<g>
			<path class="st0" d="M108.3,57.5c-0.3,1-1.3,1.4-2.1,2.2v-0.3c0.3-1.1,1-2,2-2.4C108.7,57,108.2,57.3,108.3,57.5"/>
		</g>
		<g>
			<path class="st0" d="M110.3,58.3c0,0.2-0.3,0.3-0.5,0.5c-0.2-0.1-0.3-0.1-0.5-0.3c0-0.2,0.2-0.3,0.3-0.4
				C110,58,110.1,58.1,110.3,58.3"/>
		</g>
		<g>
			<path class="st0" d="M90.9,10.9h-0.2c-0.8,0-0.2,1,0.2,1C91.4,11.9,91.5,10.9,90.9,10.9 M88.6,11.9c0.8,0,0-1-0.3-1h-0.8
				c-0.7,0,0,1,0.5,1H88.6z M85.4,11.9c0.7,0,0-1-0.3-1h-0.8c-0.7,0,0,1,0.3,1H85.4z M90.9,10.7c0.3,0,0.7,0.3,0.7,0.7
				s-0.3,0.7-0.7,0.7h-7.7c-0.3,0-0.7-0.2-0.7-0.7c0-0.3,0.3-0.7,0.7-0.7H90.9z"/>
		</g>
		<g>
			<path class="st0" d="M90.9,22.7c0,0.3,0.5,0.1,0.8,0.1s0.8,0.2,0.8-0.1c0-0.4-0.5-0.3-0.8-0.3C91.4,22.4,90.9,22.3,90.9,22.7
				 M92.4,23.6c0.3,0,0.3-0.5,0.3-0.9c0-0.9-0.7,0-1-0.9c-0.3,0.8-1,0-1,0.8c0,0.5,0,1,0.5,1H92.4z M90.2,19.6l1.5,0.5l1.5-0.5
				l-0.7,2.2l1.1-0.3l-0.3,1.3l0.3,1.3l-1-0.3l0.5,2.4l-1.5-0.5l-1.5,0.5l0.7-2.4l-1.3,0.3l0.3-1.3l-0.3-1.2l1.2,0.2L90.2,19.6z"/>
		</g>
	</g>
	<polygon class="st0" points="86.8,22 86.6,22 86.8,22.3 86.4,22.5 86.8,22.5 86.8,22.8 86.9,22.6 87.3,22.8 87.3,22.5 87.4,22.5 
		87.3,22.3 87.4,22 87.1,22 86.9,21.8 	"/>
	<polygon class="st0" points="85.8,23.6 85.4,23.6 85.6,23.8 85.4,23.9 85.6,24 85.6,24.2 85.8,24.1 86.1,24.2 86.1,24 86.3,23.9 
		86.1,23.8 86.3,23.6 85.9,23.6 85.8,23.2 	"/>
	<polygon class="st0" points="87.6,23.3 87.4,23.3 87.4,23.6 87.3,23.8 87.6,23.8 87.6,24.1 87.7,23.9 88.1,24.1 88.1,23.8 
		88.2,23.8 88.1,23.6 88.2,23.3 87.9,23.3 87.7,23.1 	"/>
	<polygon class="st0" points="87.7,24.8 87.7,24.9 87.6,25 87.7,25 87.7,25.2 87.9,25.1 88.1,25.2 88.1,25 88.2,25 88.1,24.9 
		88.1,24.8 87.9,24.6 	"/>
	<polygon class="st0" points="86.1,25.2 85.6,25.2 85.9,25.5 85.6,25.9 85.9,26 85.9,26.4 86.4,26.2 86.8,26.4 86.8,26 87.3,25.9 
		86.9,25.5 87.1,25.2 86.6,25.2 86.4,24.8 	"/>
	<polygon class="st0" points="85.9,4 83.6,3.3 84.8,5.4 82.8,6.8 85.3,7.2 85.1,9.6 86.9,8 88.7,9.6 88.6,7.2 90.9,6.8 88.9,5.4 
		90,3.3 87.8,4 86.9,1.7 	"/>
	<g>
		<g>
			<path class="st0" d="M78.5,52.2c-0.3,0.1-0.3,0.2-0.3,0.5l0.3,1.3c0,0.3,0,0.7-0.2,1c-0.2,0.2-0.5,0.4-0.8,0.5
				c-0.3,0-0.8,0.1-1.1,0c-0.3-0.1-0.5-0.2-0.5-0.8l-0.3-1.4C75.4,53,75.3,53,74.9,53l0,0l1.8-0.4v0.1c-0.3,0.1-0.5,0.2-0.3,0.5
				l0.3,1.4c0,0.3,0.2,0.9,0.8,0.8c1-0.2,0.8-1,0.8-1.2L78,52.8c-0.2-0.3-0.2-0.4-0.7-0.3v-0.1L78.5,52.2z"/>
		</g>
		<g>
			<path class="st0" d="M81.2,52.5c-0.2-0.2-0.7-0.7-1.3-0.5c-0.2,0-0.5,0.2-0.5,0.5c0.2,0.2,0.3,0.3,0.7,0.3l0.8,0.2
				c0.3,0,0.7,0.2,0.8,0.7c0.2,0.3-0.2,1-1.2,1.2c-0.5,0.1-0.7,0-0.8,0c-0.2,0.1-0.2,0.1-0.2,0.2h-0.2L79.2,54h0.2
				c0.2,0.4,0.5,0.9,1.2,0.8c0.7-0.2,0.7-0.7,0.7-0.7c-0.2-0.3-0.3-0.3-0.8-0.4L80,53.6c-1-0.1-1-0.4-1.2-0.7c0-0.3,0-0.9,1-1.1
				c0.5-0.1,0.7,0,0.8-0.1c0.2,0,0.2-0.1,0.2-0.1l0.2-0.1L81.2,52.5z"/>
		</g>
		<g>
			<path class="st0" d="M84.5,54.3l-1.8,0.2v-0.1c0.3-0.1,0.5-0.1,0.5-0.6l-0.3-2.3c-0.3,0-0.8,0.1-0.8,0.9h-0.2l-0.2-0.9l3.3-0.3
				v0.9h-0.2c-0.2-0.7-0.7-0.7-1-0.7l0.2,2.4c0,0.3,0.2,0.3,0.5,0.3V54.3z"/>
		</g>
		<g>
			<path class="st0" d="M86.6,52.6c0.7,0,1,0,1-0.7c0-0.4-0.2-0.7-0.7-0.7c-0.2,0-0.2,0.1-0.3,0.2V52.6z M88.9,54.3h-1l-1.2-1.4
				h-0.2v0.9c0,0.3,0.2,0.3,0.5,0.4v0.1l-1.8-0.1V54c0.3,0,0.5,0,0.5-0.3v-2.1c0-0.3-0.2-0.3-0.5-0.3v-0.1H87c0.3,0,1.5,0.1,1.5,0.8
				c0,0.5-0.7,0.8-0.8,0.8l1,1.3C88.7,54.2,88.9,54.2,88.9,54.3L88.9,54.3z"/>
		</g>
		<g>
			<path class="st0" d="M90.9,53.5l-0.3-1.2l-0.7,1L90.9,53.5z M92.4,54.7l-1.6-0.2v-0.1c0.3,0,0.5,0,0.5-0.1s-0.2-0.4-0.2-0.7
				L90,53.5c-0.3,0.3-0.3,0.4-0.3,0.5s0.2,0.2,0.3,0.2v0.1l-1-0.1v-0.1c0.2,0,0.3-0.1,0.5-0.4l1.5-2.3h0l0.8,2.5
				C92,54.3,92.1,54.6,92.4,54.7L92.4,54.7L92.4,54.7z"/>
		</g>
		<g>
			<path class="st0" d="M95.5,55.3l-3-0.5v-0.1c0.3,0,0.5,0,0.5-0.2l0.3-2.2C93.5,52,93.2,52,93,52v-0.2l1.8,0.4v0.1
				c-0.3-0.1-0.5-0.1-0.7,0.2l-0.3,2.1c0,0.2,0,0.3,0.5,0.3c0.7,0.2,1.1-0.1,1.5-0.5H96L95.5,55.3z"/>
		</g>
		<g>
			<path class="st0" d="M97.5,55.8l-1.8-0.4v-0.1c0.3,0.1,0.5,0.1,0.7-0.2l0.3-2.1c0.2-0.3-0.2-0.3-0.3-0.4v-0.1l1.8,0.4V53
				c-0.3-0.1-0.5-0.1-0.7,0.2l-0.3,2.1C97,55.6,97.4,55.6,97.5,55.8L97.5,55.8z"/>
		</g>
		<g>
			<path class="st0" d="M99.8,55l-0.5-1.1l-0.7,1L99.8,55z M101.2,56.2l-1.8-0.1V56c0.3,0,0.5,0,0.5-0.2c0-0.1-0.2-0.4-0.2-0.5
				l-1.2-0.1c-0.2,0.2-0.3,0.4-0.3,0.5s0.2,0.2,0.3,0.2V56l-1-0.1v-0.1c0.3,0,0.3-0.2,0.5-0.4l1.5-2.4l0.2,0.1l1,2.4
				C100.9,56,100.9,56.2,101.2,56.2L101.2,56.2z"/>
		</g>
		<g>
			<path class="st0" d="M86.8,20.5c-0.3,0-0.8,0.2-0.8-0.1c0-0.5,0.3-0.4,0.7-0.4c0.3,0,0.8-0.1,0.8,0.4
				C87.4,20.7,87.1,20.5,86.8,20.5 M87.6,20.3c0-1.1-0.5,0-0.8-1c-0.3,0.8-1,0.1-1,1c0,0.3,0,0.5,0.2,0.5v0.3c0,0.1,0.2,0.2,0.2,0.2
				h1.2c0,0,0.2-0.1,0.2-0.2v-0.3C87.6,20.7,87.6,20.5,87.6,20.3"/>
		</g>
		<g>
			<path class="st0" d="M97,33.5c0.2,0,0.5-0.2,0.5-0.4s-0.3-0.4-0.5-0.4c-0.3,0-0.5,0.2-0.5,0.4C96.5,33.2,96.6,33.5,97,33.5"/>
		</g>
		<g>
			<path class="st0" d="M94.7,17.6L94.3,18c0,0.2,0.2,0.3,0.3,0.3c0.2,0,0.2-0.1,0.2-0.3L94.7,17.6z"/>
		</g>
		<g>
			<path class="st0" d="M78.9,17.6L78.7,18c0,0.2,0.2,0.3,0.2,0.3c0.2,0,0.3-0.1,0.3-0.3L78.9,17.6z"/>
		</g>
		<g>
			<path class="st0" d="M82.8,17.6L82.6,18c0,0.2,0,0.3,0.2,0.3s0.3-0.1,0.3-0.3L82.8,17.6z"/>
		</g>
		<g>
			<path class="st0" d="M86.8,17.6L86.6,18c0,0.2,0,0.3,0.2,0.3s0.3-0.1,0.3-0.3L86.8,17.6z"/>
		</g>
		<g>
			<path class="st0" d="M90.7,17.6L90.5,18c0,0.2,0,0.3,0.2,0.3s0.2-0.1,0.2-0.3L90.7,17.6z"/>
		</g>
		<g>
			<path class="st0" d="M78.9,23c0,0,0.3,0.3,0.3,0.4s-0.2,0.2-0.3,0.2c0,0-0.2-0.1-0.2-0.2L78.9,23z"/>
		</g>
		<g>
			<path class="st0" d="M78.9,28.2c0,0,0.3,0.3,0.3,0.4s-0.2,0.2-0.3,0.2c0,0-0.2-0.1-0.2-0.2L78.9,28.2z"/>
		</g>
		<g>
			<path class="st0" d="M79.5,32.4l0.3,0.4c0,0.2-0.2,0.3-0.3,0.3c-0.2,0-0.2-0.1-0.2-0.3L79.5,32.4z"/>
		</g>
		<g>
			<path class="st0" d="M82.8,34.6c0,0,0.3,0.4,0.3,0.5s-0.2,0.2-0.3,0.2c-0.2,0-0.2-0.1-0.2-0.2C82.6,35,82.8,34.6,82.8,34.6"/>
		</g>
		<g>
			<path class="st0" d="M94.8,23c0,0-0.2,0.3-0.2,0.4s0,0.2,0.2,0.2s0.2-0.1,0.2-0.2L94.8,23z"/>
		</g>
		<g>
			<path class="st0" d="M94.8,28.2c0,0-0.2,0.3-0.2,0.4s0,0.2,0.2,0.2s0.2-0.1,0.2-0.2L94.8,28.2z"/>
		</g>
		<g>
			<path class="st0" d="M94.2,32.4L94,32.8c0,0.2,0,0.3,0.2,0.3s0.3-0.1,0.3-0.3L94.2,32.4z"/>
		</g>
		<g>
			<path class="st0" d="M90.9,34.6c0,0-0.2,0.4-0.2,0.5s0,0.2,0.2,0.2s0.3-0.1,0.3-0.2C91.2,35,90.9,34.6,90.9,34.6"/>
		</g>
		<g>
			<path class="st0" d="M86.9,37c0,0-0.3,0.3-0.3,0.4c0,0.1,0.2,0.2,0.3,0.2c0.2,0,0.2-0.1,0.2-0.2L86.9,37z"/>
		</g>
		<g>
			<path class="st0" d="M93.3,29.1c0,0.1,0.2,0.1,0.3,0l0.2-0.4c0,0-0.2-0.1-0.3-0.1c-0.5,0.1-0.8,0.1-1.2,0.5
				c0,0.2,0.2,0.5,0.5,0.7c0-0.1,0.2,0.1,0.2,0.1c0,0.2,0,0.3-0.2,0.3c-0.3-0.3-0.8,0-1-0.3c0-0.3,0.3-0.8,0-1.1
				c0-0.1,0.2-0.2,0-0.3c-0.2-0.3-0.5,0-0.7,0c-0.5-0.1-0.7,0.1-1,0.4c0,0.1,0.2,0.2,0.3,0.3l0.2,0.1l-0.3,0.2
				c0.2,0,0.2,0.1,0.2,0.2c-0.2,0.1-0.3-0.1-0.5-0.3c0-0.1,0-0.6-0.2-0.6s-0.3,0.1-0.3,0.1v0.3v0.4c0,0,0.8,0.7,1,1
				c-0.2,0.4-0.2,1.1-0.8,1.3v0.4c0.3-0.1,1-0.2,1-0.8c0-0.2,0.2-0.4,0.5-0.7c0.2,0,0.3,0.1,0.5,0.3c0,0.3-0.3,0.7-0.7,0.8v0.2
				c0,0.1,0.3,0.1,0.5,0c0.5-0.2,0.7-0.8,1-0.9c0,0.2-0.5,0.3-0.2,0.5c0.2,0,0.5,0,0.7-0.2c-0.2-0.4,0.7-0.7,0.2-1.1
				c0-0.3,0.3-0.4,0.3-0.9c-0.2-0.4-0.7-0.4-0.7-0.8C92.8,29,93.2,29,93.3,29.1"/>
		</g>
		<g>
			<path class="st0" d="M75.2,33.7c0.3,0,0.5-0.2,0.5-0.4c0-0.3-0.2-0.4-0.5-0.4s-0.5,0.1-0.5,0.4C74.8,33.5,74.9,33.7,75.2,33.7"/>
		</g>
		<g>
			<path class="st0" d="M49.7,48.5c0.3,0,0.5-0.2,0.5-0.4s-0.2-0.4-0.5-0.4c-0.2,0-0.5,0.2-0.5,0.4S49.6,48.5,49.7,48.5"/>
		</g>
	</g>
	<path class="st0" d="M66,52.1h0.2H66z M66,52.1h0.2H66z"/>
	<path class="st0" d="M66.2,52.1h0.2H66.2z"/>
	<g>
		<g>
			<path class="st0" d="M95.5,31c-0.2,1.1-0.5,2-1.3,2.5l-6.8,4.4C87.2,38,87.1,38,86.9,38c-0.3,0-0.5,0-0.7-0.1l-6.7-4.4
				c-0.8-0.5-1.1-1.4-1.1-2.5V17.5h17.1V31z M96,17H77.9v13.8c0,1.4,0.5,2.6,1.3,3l7.1,4.4c0.2,0.2,0.3,0.3,0.7,0.3
				c0.2,0,0.3-0.1,0.5-0.2l7.1-4.5c0.8-0.4,1.5-1.6,1.5-3L96,17L96,17z"/>
		</g>
		<g>
			<path class="st0" d="M89.4,37.2l0.2-0.1C89.4,37.1,89.4,37.2,89.4,37.2"/>
		</g>
		<g>
			<path class="st0" d="M73.9,55.2l-0.7-1l-0.3,1.1L73.9,55.2z M75.6,56.1L74,56.3v-0.1c0.3-0.1,0.5-0.1,0.3-0.2
				c0-0.1-0.2-0.4-0.2-0.5l-1.3,0.1c0,0.3-0.2,0.5-0.2,0.5c0,0.2,0.3,0.2,0.5,0.2v0.1l-1,0.1v-0.1c0.2-0.1,0.3-0.2,0.3-0.7l1-2.5
				h0.2l1.3,2.2c0.3,0.4,0.5,0.5,0.7,0.5C75.6,55.9,75.6,56.1,75.6,56.1z"/>
		</g>
		<g>
			<path class="st0" d="M105,50.6c-0.3,0.5-0.7,0.9-1.2,1c0-0.7,0.7-1.1,0.3-1.9c-0.3-0.4-1-0.7-1.7-0.5c-0.2,0.2,0,0.4-0.2,0.7
				l-0.2,0.9c-0.5,0-0.5-0.4-0.7-0.8c0-0.5,0.3-1.1,0.8-1.4c0.5-0.2,1.1-0.1,1.5,0.1c0.3,0,0.8,0.2,0.8,0.5
				C105.2,49.5,105,50.1,105,50.6 M102.9,50.9c0.3-0.3-0.2-2,0.7-0.9c0,0.2,0,0.5-0.2,0.7C103.2,50.8,103.1,51,102.9,50.9
				 M103.2,51.5c0,0.4-0.5,0.3-0.7,0.4h-0.7v-0.8C102.2,51.3,102.7,51.3,103.2,51.5 M103.9,54.7c-0.2,0.3,0,0.8-0.3,1
				c0,0.4-0.3,0.7-0.7,0.9c-3.1,0.7-6.1-0.4-9.2-0.9c-4.1-1-9.1-1.2-13.3-0.2c-2,0.3-3.9,0.8-5.8,1.4C73.3,57,72,57.2,71,56.8
				s-0.7-1.6-1-2.5c0.2-0.7-0.2-1.1-0.2-1.7c0-0.2-0.2-0.5,0-0.7c0.3,0,0.7,0.3,1.2,0.4c2.1,0.3,4.1-0.3,6.1-0.7s4-0.8,6.1-1
				c2.3,0,4.8-0.1,6.9,0.2c0.8,0.1,1.3,0.2,2.1,0.3c1.3,0.1,2.8,0.5,4.3,0.7C96.6,52,97,52,97.1,52c2.5,0.4,5.1,1.1,7.2,0
				C104.4,53,104,53.8,103.9,54.7 M90.7,56.6c0.2,0.3,0.3,0.7,0.2,1.1c-0.2,0.5-0.8,0.5-1.2,0.7c-0.3,0-0.5-0.1-0.7-0.2
				c0-0.1,0-0.1-0.2-0.2c0.2-0.3-0.5-0.7,0-1C89.2,56.5,90.2,55.7,90.7,56.6 M91.2,56.8c0.3,0.1,0.3,0.4,0.3,0.7
				c0,0.5-0.3,1.1-0.8,1.3c-0.3,0.1-0.7,0.2-1,0.1c0.7,0,1.3-0.3,1.5-0.9V56.8z M91.9,60.2L91.9,60.2c-0.8,0.1-1.3-0.3-1.8-0.8v-0.1
				C90.7,59.5,91.4,59.9,91.9,60.2 M91,62.6c-0.2,0.1-0.2,0.1-0.3,0c-0.7-1-1.2-2.1-1.6-3.2h0.2C89.9,60.5,90.4,61.7,91,62.6
				 M89.7,62l-0.2,0.1c-0.2-0.1-0.2-0.4,0-0.5C89.6,61.7,89.7,61.8,89.7,62 M88.9,60.5c0,0.2,0.3,0.3,0.2,0.5
				C89.1,60.9,88.9,60.7,88.9,60.5 M88.7,58.8l0.2-0.1L88.7,58.8z M87.3,62.5c-0.5,0-1.2,0.3-1.7-0.1c0-0.2-0.3-0.3-0.2-0.5
				c0.3-0.1,0.7,0.4,1.1,0c0.5,0,1.2-0.1,1.8,0.1c0.2,0,0.7-0.5,0.7,0C88.9,62.9,87.9,62.3,87.3,62.5 M86.1,59.5l0.2-0.2
				c-0.2,0.5-0.5,1.2-0.8,1.8C85.3,60.5,85.9,60,86.1,59.5 M86.9,58.9c0.3-0.3,0.7,0.2,0.7,0.5c0.5,0.5,1.5,1.1,1,1.9
				c-0.5,0.4-1.2,0-1.8,0.3c-0.2,0-0.7,0.1-0.8-0.2C86.1,60.6,86.4,59.7,86.9,58.9 M86.8,58h-0.2l0.2-0.2
				C86.9,57.9,86.8,57.9,86.8,58 M87.4,58c0-0.1,0.2-0.3,0.3-0.3h0.2C87.8,57.9,87.6,58,87.4,58 M87.8,58.4c0-0.1,0.2-0.1,0.2,0
				H87.8z M88.4,59.2v0.2L87.7,59C88.1,58.8,88.2,58.9,88.4,59.2 M89.6,56c-0.3,0.1-0.7,0.4-1,0.5C88.7,56.2,89.2,56,89.6,56
				 M88.2,55.7c-0.2-0.2,0.2-0.1,0.3-0.2l0.8,0.1C88.9,55.5,88.4,56.4,88.2,55.7 M86.3,56.3c0.2-0.3,0.2-0.7,0.3-0.9h0.8
				c0,0.5,0.7,1.3,0,1.7c-0.3,0.1-0.7,0.3-0.8,0.1C86.3,57,86.1,56.8,86.3,56.3 M85.9,58v-0.3c0.2-0.1,0.3,0.1,0.3,0.2
				C86.3,58,86.1,58.1,85.9,58 M85.9,56.8v-0.2V56.8z M85.6,56c-0.3-0.1-0.5-0.4-1-0.4c0.3-0.1,0.7-0.1,1-0.1
				C85.8,55.7,85.6,55.9,85.6,56 M85.3,58.2c0-0.4,0.2-0.9,0.3-1.2C85.6,57.4,85.4,57.9,85.3,58.2 M84.6,58.2
				c-0.3-0.1-0.8-0.2-1.2-0.3c-0.3-0.3,0-0.6,0-0.9c0.3-0.5,1.3-0.9,1.8-0.3C85.3,57.2,85.1,57.7,84.6,58.2 M84.9,58.8L84.9,58.8
				L84.9,58.8z M84.3,60.4C84,61.2,83.5,62,83,62.9c0,0.1-0.2,0.1-0.3,0.1c0-0.3,0.3-0.7,0.5-1c0.5-0.7,0.7-1.4,1.3-2.1
				C84.6,60,84.3,60.1,84.3,60.4 M81.8,60.1c0.7-0.3,1.3-0.9,2-0.7C83.3,59.9,82.5,60,81.8,60.1 M82.8,58.3
				c-0.2-0.9,0.2-1.7,0.8-2.4c0.3,0,0.7-0.1,1,0.1c-0.7,0.1-1.5,0.3-1.6,1.2c0,0.3,0,0.5,0.2,0.8c0.2,0.6,0.8,0.3,1.3,0.8
				c0,0.1-0.2,0.2-0.3,0.2C83.6,58.7,83.1,58.6,82.8,58.3 M70.5,49.9c0.2-0.2,0-0.5,0.3-0.7c0.2,0,0.5,0,0.5,0.2
				c0,0.3,0,0.7-0.2,0.9C70.8,50.4,70.6,50.2,70.5,49.9 M70.6,50.8c0.3,0.2,1,0.1,1.3,0.2c0.2,0.3,0.2,0.7,0,0.9
				c-0.5-0.1-1,0-1.3-0.4V50.8z M69.5,50c0-0.4,0.2-1,0.5-1.3c0.7-0.3,1.5-0.3,2.1,0.1c0.2,0.1,0.3,0.2,0.3,0.4c0.2,0.4,0,1-0.3,1.2
				h-0.3c0-0.4,0-0.9,0.2-1.2c0-0.3-0.2-0.3-0.5-0.4c-0.3-0.1-0.8,0.1-1.1,0.2c-0.2,0.3-0.5,0.8-0.3,1.2c0.2,0.3,0,0.7,0.2,1
				L70,51.3C69.8,51,69.3,50.6,69.5,50 M93.8,61.1c0.7,0.3,1.8,0.5,2.8,0.7c-0.2,0.4-0.8,0-0.7,0.5c-0.8-0.3-1.8-0.4-2.3-1.1
				C93.7,61.2,93.7,61.1,93.8,61.1 M77.5,61.5l-0.3-0.3c0.2-0.2,0.5-0.1,0.8-0.2c0.7-0.2,1.5-0.5,2.3-0.3
				C79.5,61.2,78.5,61.3,77.5,61.5 M105.7,49.6c-0.3-0.8-1-1.3-1.8-1.6c-0.8-0.1-1.6,0-2.3,0.7c-0.8,0.8-0.2,2-0.2,3
				c0,0.2,0,0.3-0.2,0.4c-3.8-0.3-7.4-1.3-11-1.6c-1-0.2-1.8-0.1-2.6-0.3l-1-0.1c-3.3,0.1-6.6,0.3-9.5,1.1c-0.7,0.2-1.5,0.2-2,0.4
				c-0.5,0-1,0.3-1.3,0.2l-1,0.1c0,0.1-0.2,0.1-0.2,0c-0.5-1.1,0.8-1.7,0.3-2.7c-0.3-0.7-1-1.2-1.8-1.1c-0.8-0.1-1.6,0.3-2,1.1
				c-0.7,1.3,0.2,2.6,0.3,3.9c0,0.4,0.5,0.9,0,1.2c-0.8-0.5-2-0.9-3-0.5c-0.3,0.1-0.8-0.1-1,0.3c1.2,0.5,2.5,0.5,3.8,0.4
				c0.2,0,0.3-0.1,0.3,0c0.2,0.8,0,1.6,0.3,2.3c0.5,0.5,1.3,0.8,2,0.8c2.5,0,4.6-0.8,6.7-1.3c0.3,0,0.7-0.2,1-0.2
				c1.2-0.2,2.5-0.4,3.6-0.4c-0.5,0.7-0.8,1.4-1,2.3c-0.3,0.8,0.5,0.9,0.8,1.2c-0.8,0.3-1.5,0.9-2.1,1.2c-1.6-0.1-3.1,0.6-4.6,0.8
				c-0.2,0.3,0.5,0.2,0.5,0.5c0,0.2-0.3,0.2-0.5,0.3c0,0.2,0,0.2,0.2,0.2c0.2-0.1,0.5,0,0.7-0.2c0.5,0,1-0.1,1.5-0.1
				c0.5-0.2,1-0.2,1.3-0.5c0.5-0.2,0.8-0.5,1.5-0.8c0.7,0,1.5-0.2,2.1-0.2v0.1c-0.7,1-1.2,2-1.8,2.8c-0.2,0.2,0,0.4,0.2,0.4
				c0.3,0.1,0.7,0,1-0.1c0.5-1,1-1.9,1.5-2.8c0.2-0.9,0.8-1.3,1.5-2c0.2,0,0.3-0.2,0.3,0c-0.5,0.5-0.8,1.1-1.2,1.7
				c-0.2,0.8-0.3,1.7,0.3,2.3c0.3,0.3,0.8,0.2,1.1,0.2c1.2-0.5,2.5,0.3,3.1-0.7c0.5-0.1,0.7,0.4,0.8,0.8c0.5,0.1,1,0.5,1.3,0.2
				c0-0.2-0.3-0.5-0.5-0.8c-0.3-0.5-0.7-1-1-1.5c0-0.3-0.3-0.7-0.3-1c0.5,0.2,0.8,0.4,1.3,0.5c0.5,0.2,1,0.2,1.5,0.4
				c0.3,0.4,0.8,0.8,1.3,1c0.7,0.3,1.3,0.4,2,0.7c0.3,0,0.7,0.2,0.8,0c0-0.1-0.2-0.2-0.3-0.3c0-0.3,0.5-0.1,0.7-0.4
				c0-0.1-0.2-0.1-0.3-0.1c-0.3-0.2-1.3-0.3-1.5-0.4c-0.3-0.1-0.7-0.2-1-0.3c-1.5,0-2.5-1.4-3.6-2c0.3-0.2,0.7-0.4,0.8-0.8
				c0.3-0.4,0.3-1,0.2-1.4c-0.3-0.9-1.3-0.8-1.8-1.2v-0.1c1,0,2,0.2,2.8,0.4c2.5,0.3,4.8,1.3,7.4,1.3c1.5,0,3.3,0.1,4-1.3
				c0.2-0.8,0.3-1.6,0.3-2.4C104.9,52.3,105.9,51.1,105.7,49.6"/>
		</g>
	</g>
	<rect x="5.1" y="91.3" class="st0" width="163.3" height="0.7"/>
	<g>
		<g>
			<path class="st0" d="M11.1,79.9H7.3l-0.4,1c-0.1,0.4-0.2,0.6-0.2,0.9s0.1,0.5,0.4,0.7c0.1,0.1,0.5,0.1,1,0.2V83H4.5v-0.3
				c0.4-0.1,0.7-0.2,0.9-0.5c0.3-0.2,0.6-0.8,1-1.6l3.8-8.5h0.2l3.9,8.8c0.4,0.8,0.7,1.4,0.9,1.6s0.4,0.3,0.8,0.3V83h-5.2v-0.3H11
				c0.4,0,0.7-0.1,0.9-0.2c0.1-0.1,0.2-0.2,0.2-0.4c0-0.1,0-0.2,0-0.3c0,0-0.1-0.2-0.2-0.6L11.1,79.9z M10.8,79.4l-1.6-3.7l-1.6,3.7
				H10.8z"/>
		</g>
	</g>
	<g>
		<g>
			<path class="st0" d="M23.7,75.6v5.8c0,0.6,0.1,0.9,0.2,1.1c0.1,0.1,0.3,0.2,0.6,0.3V83h-3v-1c-0.4,0.4-0.7,0.7-1.1,0.9
				c-0.4,0.2-0.7,0.3-1.2,0.3c-0.4,0-0.8-0.1-1.1-0.4c-0.3-0.3-0.5-0.5-0.7-0.9c-0.1-0.3-0.2-0.9-0.2-1.8v-2.9c0-0.6-0.1-0.9-0.2-1
				s-0.3-0.2-0.6-0.3v-0.3h3v5c0,0.5,0,0.9,0.1,1c0.1,0.2,0.1,0.3,0.2,0.4s0.2,0.1,0.4,0.1c0.2,0,0.4-0.1,0.5-0.1
				c0.2-0.1,0.5-0.4,0.8-0.8v-3.9c0-0.6,0-0.9-0.2-1c-0.1-0.1-0.3-0.2-0.6-0.3v-0.3L23.7,75.6L23.7,75.6z"/>
		</g>
		<g>
			<path class="st0" d="M30.2,75.4l0.1,2.5H30c-0.3-0.7-0.7-1.3-1-1.5c-0.3-0.3-0.7-0.4-1-0.4c-0.2,0-0.4,0.1-0.6,0.2
				s-0.2,0.3-0.2,0.5c0,0.1,0.1,0.3,0.2,0.4c0.2,0.2,0.6,0.6,1.4,1.1s1.3,1,1.5,1.3c0.2,0.4,0.4,0.8,0.4,1.2c0,0.4-0.1,0.8-0.3,1.2
				c-0.2,0.4-0.5,0.7-0.9,0.9c-0.4,0.2-0.8,0.3-1.2,0.3c-0.4,0-0.8-0.1-1.4-0.3c-0.2-0.1-0.3-0.1-0.3-0.1c-0.2,0-0.3,0.1-0.4,0.4
				h-0.3l-0.1-2.6H26c0.2,0.7,0.6,1.2,1,1.6c0.4,0.3,0.8,0.5,1.2,0.5c0.3,0,0.5-0.1,0.6-0.2c0.2-0.2,0.2-0.3,0.2-0.6
				c0-0.3-0.1-0.5-0.2-0.7c-0.2-0.2-0.5-0.5-1.1-0.8c-0.8-0.6-1.3-1-1.6-1.3c-0.3-0.4-0.5-0.9-0.5-1.4c0-0.6,0.2-1.1,0.6-1.5
				c0.4-0.5,1-0.7,1.7-0.7c0.4,0,0.8,0.1,1.2,0.3c0.1,0.1,0.3,0.1,0.3,0.1c0.1,0,0.2,0,0.2-0.1c0.1,0,0.2-0.1,0.3-0.3H30.2z"/>
		</g>
		<g>
			<path class="st0" d="M34.8,72.9v2.7h1.7v0.8h-1.7v4.5c0,0.4,0,0.7,0.1,0.8c0,0.1,0.1,0.2,0.2,0.3c0.1,0.1,0.2,0.1,0.3,0.1
				c0.3,0,0.7-0.3,1-0.8l0.2,0.2c-0.4,1-1.1,1.5-2.1,1.5c-0.5,0-0.9-0.1-1.2-0.4s-0.5-0.5-0.6-0.9c-0.1-0.2-0.1-0.7-0.1-1.4v-4h-1
				V76c0.7-0.5,1.2-1,1.7-1.5s0.9-1.1,1.2-1.7h0.3V72.9z"/>
		</g>
		<g>
			<path class="st0" d="M40.3,75.6v1.7c0.5-0.8,0.9-1.3,1.3-1.5c0.4-0.3,0.7-0.4,1.1-0.4c0.3,0,0.5,0.1,0.7,0.3
				c0.2,0.2,0.3,0.4,0.3,0.8s-0.1,0.6-0.3,0.8c-0.2,0.2-0.4,0.3-0.6,0.3c-0.3,0-0.5-0.1-0.7-0.3c-0.2-0.2-0.3-0.3-0.4-0.3
				c-0.1,0-0.1-0.1-0.2-0.1c-0.2,0-0.3,0.1-0.4,0.2c-0.2,0.2-0.4,0.4-0.5,0.8c-0.2,0.5-0.3,1.1-0.3,1.7v1.7v0.4c0,0.3,0,0.5,0.1,0.6
				s0.2,0.2,0.3,0.3c0.1,0.1,0.3,0.1,0.6,0.1V83h-4v-0.3c0.3,0,0.5-0.1,0.7-0.3c0.1-0.2,0.2-0.5,0.2-1.2v-4.1c0-0.4,0-0.7-0.1-0.8
				C38,76.2,38,76,37.9,76c-0.1-0.1-0.3-0.1-0.5-0.1v-0.3C37.4,75.6,40.3,75.6,40.3,75.6z"/>
		</g>
		<g>
			<path class="st0" d="M48.4,81.9c-0.9,0.8-1.7,1.2-2.4,1.2c-0.4,0-0.8-0.1-1.1-0.4s-0.4-0.6-0.4-1c0-0.6,0.2-1.1,0.7-1.5
				c0.5-0.5,1.5-1,3.2-1.8v-0.7c0-0.6,0-0.9-0.1-1.1c-0.1-0.1-0.2-0.3-0.3-0.4c-0.2-0.1-0.4-0.2-0.6-0.2c-0.3,0-0.6,0.1-0.8,0.2
				c-0.1,0.1-0.2,0.2-0.2,0.3c0,0.1,0.1,0.2,0.2,0.4c0.2,0.2,0.3,0.4,0.3,0.7c0,0.3-0.1,0.5-0.3,0.7s-0.4,0.3-0.8,0.3
				c-0.3,0-0.6-0.1-0.8-0.3c-0.2-0.2-0.3-0.4-0.3-0.7c0-0.4,0.1-0.7,0.4-1.1c0.3-0.3,0.7-0.6,1.3-0.8c0.5-0.2,1.1-0.3,1.7-0.3
				c0.7,0,1.3,0.1,1.7,0.4s0.7,0.6,0.8,1c0.1,0.2,0.1,0.7,0.1,1.5v2.9c0,0.3,0,0.5,0,0.6s0.1,0.1,0.1,0.2c0.1,0,0.1,0.1,0.2,0.1
				c0.1,0,0.3-0.1,0.4-0.3l0.2,0.2c-0.3,0.4-0.5,0.7-0.8,0.8c-0.3,0.2-0.6,0.3-1,0.3s-0.7-0.1-1-0.3C48.6,82.6,48.5,82.3,48.4,81.9
				 M48.4,81.3v-2.5c-0.6,0.4-1.1,0.8-1.4,1.2c-0.2,0.3-0.3,0.6-0.3,0.9c0,0.2,0.1,0.5,0.3,0.6c0.1,0.1,0.3,0.2,0.6,0.2
				C47.8,81.8,48.1,81.6,48.4,81.3"/>
		</g>
		<g>
			<path class="st0" d="M55.3,72.3v9.2c0,0.5,0.1,0.8,0.2,1c0.1,0.1,0.4,0.2,0.7,0.3V83h-4v-0.3c0.3,0,0.6-0.1,0.7-0.3
				c0.1-0.1,0.2-0.4,0.2-1v-7.6c0-0.5-0.1-0.8-0.2-1c-0.1-0.1-0.4-0.2-0.7-0.2v-0.3C52.2,72.3,55.3,72.3,55.3,72.3z"/>
		</g>
		<g>
			<path class="st0" d="M59.8,75.6v5.8c0,0.5,0.1,0.8,0.2,1c0.1,0.1,0.4,0.2,0.7,0.2V83h-4v-0.3c0.3,0,0.6-0.1,0.7-0.3
				c0.1-0.1,0.2-0.4,0.2-1v-4.3c0-0.5-0.1-0.9-0.2-1c-0.1-0.1-0.4-0.2-0.7-0.3v-0.3h3.1V75.6z M58.7,72c0.3,0,0.6,0.1,0.9,0.4
				c0.2,0.2,0.4,0.5,0.4,0.9c0,0.3-0.1,0.6-0.4,0.9c-0.2,0.2-0.5,0.4-0.9,0.4c-0.3,0-0.6-0.1-0.9-0.4c-0.2-0.2-0.4-0.5-0.4-0.9
				c0-0.3,0.1-0.6,0.4-0.9C58.1,72.2,58.4,72,58.7,72"/>
		</g>
		<g>
			<path class="st0" d="M65.5,81.9c-0.9,0.8-1.7,1.2-2.4,1.2c-0.4,0-0.8-0.1-1-0.4c-0.3-0.3-0.4-0.6-0.4-1c0-0.6,0.2-1.1,0.7-1.5
				c0.5-0.5,1.5-1,3.2-1.8v-0.7c0-0.6,0-0.9-0.1-1.1c-0.1-0.1-0.2-0.3-0.3-0.4C65,76.1,64.8,76,64.6,76c-0.3,0-0.6,0.1-0.8,0.2
				c-0.1,0.1-0.2,0.2-0.2,0.3c0,0.1,0.1,0.2,0.2,0.4c0.2,0.2,0.3,0.4,0.3,0.7c0,0.3-0.1,0.5-0.3,0.7s-0.4,0.3-0.7,0.3
				s-0.6-0.1-0.8-0.3c-0.2-0.2-0.3-0.4-0.3-0.7c0-0.4,0.2-0.7,0.4-1.1c0.3-0.3,0.7-0.6,1.3-0.8c0.5-0.2,1.1-0.3,1.7-0.3
				c0.7,0,1.3,0.1,1.7,0.4c0.4,0.3,0.7,0.6,0.8,1C68,77,68,77.5,68,78.3v2.9c0,0.3,0,0.5,0,0.6s0.1,0.1,0.1,0.2
				c0.1,0,0.1,0.1,0.2,0.1s0.3-0.1,0.4-0.3l0.2,0.2c-0.3,0.4-0.5,0.7-0.8,0.8c-0.3,0.2-0.6,0.3-1,0.3s-0.8-0.1-1-0.3
				C65.7,82.6,65.5,82.3,65.5,81.9 M65.5,81.3v-2.5c-0.6,0.4-1.1,0.8-1.4,1.2c-0.2,0.3-0.3,0.6-0.3,0.9c0,0.2,0.1,0.5,0.3,0.6
				c0.1,0.1,0.3,0.2,0.5,0.2C64.8,81.8,65.1,81.6,65.5,81.3"/>
		</g>
		<g>
			<path class="st0" d="M72.5,75.6v0.9c0.4-0.4,0.7-0.7,1.1-0.9c0.3-0.2,0.7-0.3,1.1-0.3c0.5,0,0.9,0.1,1.2,0.4
				c0.3,0.3,0.5,0.6,0.6,1c0.1,0.3,0.1,0.9,0.1,1.7v2.9c0,0.6,0.1,0.9,0.2,1.1c0.1,0.1,0.3,0.2,0.6,0.3V83h-3.7v-0.3
				c0.3,0,0.5-0.1,0.6-0.3c0.1-0.1,0.1-0.5,0.1-1v-3.3c0-0.6,0-1-0.1-1.1c-0.1-0.2-0.1-0.3-0.2-0.4s-0.2-0.1-0.4-0.1
				c-0.5,0-0.9,0.3-1.3,1v3.9c0,0.6,0.1,0.9,0.2,1s0.3,0.2,0.6,0.3V83h-3.7v-0.3c0.3,0,0.5-0.1,0.7-0.3c0.1-0.1,0.1-0.5,0.1-1v-4.2
				c0-0.6,0-0.9-0.1-1s-0.3-0.2-0.6-0.3v-0.3C69.6,75.6,72.5,75.6,72.5,75.6z"/>
		</g>
		<g>
			<path class="st0" d="M93.1,72.1v3.8h-0.3c-0.3-1-0.9-1.8-1.6-2.3s-1.5-0.8-2.3-0.8s-1.5,0.2-2,0.7s-0.9,1.1-1.1,1.9
				s-0.3,1.6-0.3,2.5c0,1,0.1,1.9,0.4,2.7c0.2,0.8,0.6,1.3,1.2,1.7c0.5,0.4,1.2,0.5,1.9,0.5c0.3,0,0.5,0,0.8-0.1s0.6-0.1,0.8-0.2
				v-2.2c0-0.4,0-0.7-0.1-0.8c-0.1-0.1-0.2-0.2-0.4-0.3c-0.2-0.1-0.4-0.1-0.7-0.1h-0.3v-0.3h5.2v0.3c-0.4,0-0.7,0.1-0.8,0.2
				c-0.2,0.1-0.3,0.2-0.4,0.4C93,79.8,93,80,93,80.4v2.2c-0.7,0.3-1.4,0.5-2.1,0.7s-1.5,0.2-2.3,0.2c-1,0-1.9-0.1-2.5-0.4
				c-0.7-0.3-1.3-0.6-1.8-1.1c-0.5-0.4-0.9-1-1.2-1.5c-0.4-0.7-0.5-1.5-0.5-2.4c0-1.6,0.6-3,1.7-4.1s2.6-1.7,4.3-1.7
				c0.5,0,1,0,1.4,0.1c0.2,0,0.6,0.2,1.1,0.4c0.5,0.2,0.8,0.3,0.9,0.3s0.3-0.1,0.4-0.2s0.2-0.3,0.3-0.6h0.4V72.1z"/>
		</g>
		<g>
			<path class="st0" d="M98.5,75.4c0.6,0,1.2,0.2,1.8,0.5c0.5,0.3,1,0.8,1.3,1.4s0.4,1.3,0.4,2c0,1-0.3,1.9-0.8,2.6
				c-0.6,0.8-1.5,1.3-2.7,1.3c-1.1,0-2-0.4-2.6-1.2c-0.6-0.8-0.9-1.7-0.9-2.7c0-1.1,0.3-2,0.9-2.8C96.6,75.8,97.5,75.4,98.5,75.4
				 M98.6,76c-0.3,0-0.5,0.1-0.7,0.3c-0.2,0.2-0.3,0.6-0.4,1.2s-0.1,1.4-0.1,2.5c0,0.6,0,1.1,0.1,1.6c0.1,0.4,0.2,0.7,0.4,0.8
				c0.2,0.2,0.4,0.3,0.6,0.3s0.4-0.1,0.6-0.2c0.2-0.2,0.3-0.4,0.4-0.8c0.1-0.5,0.2-1.5,0.2-3c0-0.9,0-1.5-0.2-1.8
				c-0.1-0.3-0.2-0.6-0.4-0.7C99,76,98.8,76,98.6,76"/>
		</g>
		<g>
			<path class="st0" d="M106.5,83.2l-2.5-5.7c-0.3-0.7-0.5-1.1-0.7-1.3c-0.1-0.1-0.3-0.2-0.5-0.3v-0.3h3.9v0.3c-0.2,0-0.4,0-0.5,0.1
				s-0.2,0.3-0.2,0.4c0,0.2,0.1,0.6,0.3,1.1l1.2,2.8l1-2.4c0.3-0.7,0.4-1.2,0.4-1.4c0-0.2-0.1-0.3-0.2-0.4s-0.3-0.2-0.6-0.2v-0.3
				h2.4v0.3c-0.2,0-0.4,0.1-0.6,0.3c-0.2,0.1-0.4,0.6-0.7,1.3l-2.5,5.8h-0.2V83.2z"/>
		</g>
		<g>
			<path class="st0" d="M117.4,79h-4c0,1,0.3,1.7,0.8,2.3c0.4,0.4,0.8,0.7,1.3,0.7c0.3,0,0.6-0.1,0.9-0.3c0.3-0.2,0.5-0.5,0.8-0.9
				l0.3,0.2c-0.4,0.8-0.8,1.4-1.3,1.7c-0.5,0.3-1,0.5-1.7,0.5c-1.1,0-1.9-0.4-2.5-1.3c-0.4-0.7-0.7-1.5-0.7-2.5c0-1.2,0.3-2.2,1-2.9
				s1.4-1.1,2.3-1.1c0.8,0,1.4,0.3,2,0.9C117.1,76.9,117.4,77.8,117.4,79 M115.5,78.5c0-0.8,0-1.4-0.1-1.7c-0.1-0.3-0.2-0.6-0.4-0.7
				c-0.1-0.1-0.3-0.1-0.4-0.1c-0.3,0-0.5,0.1-0.7,0.4c-0.3,0.5-0.5,1.1-0.5,1.9v0.3h2.1V78.5z"/>
		</g>
		<g>
			<path class="st0" d="M121.4,75.6v1.7c0.5-0.8,0.9-1.3,1.3-1.5c0.4-0.3,0.7-0.4,1.1-0.4c0.3,0,0.5,0.1,0.7,0.3
				c0.2,0.2,0.3,0.4,0.3,0.8s-0.1,0.6-0.3,0.8c-0.2,0.2-0.4,0.3-0.6,0.3c-0.3,0-0.5-0.1-0.7-0.3c-0.2-0.2-0.3-0.3-0.4-0.3
				s-0.1-0.1-0.2-0.1c-0.2,0-0.3,0.1-0.4,0.2c-0.2,0.2-0.4,0.4-0.5,0.8c-0.2,0.5-0.2,1.1-0.2,1.7v1.7v0.4c0,0.3,0,0.5,0.1,0.6
				s0.2,0.2,0.3,0.3c0.1,0.1,0.3,0.1,0.6,0.1V83h-4v-0.3c0.3,0,0.5-0.1,0.7-0.3c0.1-0.2,0.2-0.5,0.2-1.2v-4.1c0-0.4,0-0.7-0.1-0.8
				c-0.1-0.1-0.1-0.3-0.2-0.3c-0.1-0.1-0.3-0.1-0.5-0.1v-0.3C118.6,75.6,121.4,75.6,121.4,75.6z"/>
		</g>
		<g>
			<path class="st0" d="M128.6,75.6v0.9c0.4-0.4,0.7-0.7,1.1-0.9c0.3-0.2,0.7-0.3,1.1-0.3c0.5,0,0.9,0.1,1.2,0.4s0.5,0.6,0.6,1
				c0.1,0.3,0.1,0.9,0.1,1.7v2.9c0,0.6,0.1,0.9,0.2,1.1c0.1,0.1,0.3,0.2,0.6,0.3V83h-3.7v-0.3c0.3,0,0.5-0.1,0.6-0.3
				c0.1-0.1,0.1-0.5,0.1-1v-3.3c0-0.6,0-1-0.1-1.1c-0.1-0.2-0.1-0.3-0.3-0.4c-0.1-0.1-0.2-0.1-0.4-0.1c-0.4,0-0.9,0.3-1.3,1v3.9
				c0,0.6,0,0.9,0.2,1c0.1,0.1,0.3,0.2,0.6,0.3V83h-3.7v-0.3c0.3,0,0.5-0.1,0.7-0.3c0.1-0.1,0.1-0.5,0.1-1v-4.2c0-0.6,0-0.9-0.1-1
				s-0.3-0.2-0.7-0.3v-0.3C125.5,75.6,128.6,75.6,128.6,75.6z"/>
		</g>
		<g>
			<path class="st0" d="M137.6,75.6v1c0.4-0.4,0.8-0.8,1.1-0.9c0.3-0.2,0.7-0.3,1.1-0.3c0.5,0,0.9,0.1,1.2,0.3
				c0.3,0.2,0.6,0.6,0.7,1c0.4-0.5,0.8-0.8,1.2-1s0.8-0.3,1.2-0.3c0.5,0,0.9,0.1,1.2,0.3c0.3,0.2,0.5,0.5,0.6,0.9s0.2,0.9,0.2,1.7v3
				c0,0.6,0,0.9,0.2,1.1c0.1,0.1,0.3,0.2,0.6,0.3V83h-3.8v-0.3c0.3,0,0.5-0.1,0.7-0.3c0.1-0.1,0.1-0.5,0.1-1v-3.2
				c0-0.7,0-1.1-0.1-1.3c-0.1-0.2-0.1-0.3-0.2-0.4c-0.1-0.1-0.3-0.1-0.4-0.1c-0.2,0-0.5,0.1-0.7,0.2c-0.2,0.2-0.5,0.4-0.7,0.7v4
				c0,0.5,0,0.9,0.1,1c0.1,0.2,0.4,0.3,0.7,0.3V83h-3.8v-0.3c0.2,0,0.4-0.1,0.5-0.1c0.1-0.1,0.2-0.2,0.2-0.3c0-0.1,0.1-0.4,0.1-0.8
				v-3.2c0-0.7,0-1.1-0.1-1.3c-0.1-0.2-0.1-0.3-0.3-0.4c-0.1-0.1-0.3-0.1-0.4-0.1c-0.2,0-0.4,0.1-0.6,0.2c-0.2,0.2-0.5,0.4-0.8,0.8
				v4c0,0.5,0.1,0.9,0.2,1c0.1,0.2,0.3,0.3,0.6,0.3V83h-3.8v-0.3c0.3,0,0.5-0.1,0.7-0.3c0.1-0.1,0.1-0.5,0.1-1v-4.2
				c0-0.6-0.1-0.9-0.2-1c-0.1-0.1-0.3-0.2-0.6-0.3v-0.3C134.4,75.6,137.6,75.6,137.6,75.6z"/>
		</g>
		<g>
			<path class="st0" d="M154.2,79h-4c0,1,0.3,1.7,0.8,2.3c0.4,0.4,0.8,0.7,1.3,0.7c0.3,0,0.6-0.1,0.9-0.3c0.3-0.2,0.5-0.5,0.8-0.9
				l0.3,0.2c-0.4,0.8-0.8,1.4-1.3,1.7c-0.5,0.3-1,0.5-1.7,0.5c-1.1,0-1.9-0.4-2.5-1.3c-0.4-0.7-0.7-1.5-0.7-2.5c0-1.2,0.3-2.2,1-2.9
				c0.7-0.7,1.4-1.1,2.3-1.1c0.7,0,1.4,0.3,1.9,0.9C153.9,76.9,154.2,77.8,154.2,79 M152.3,78.5c0-0.8,0-1.4-0.1-1.7
				c-0.1-0.3-0.2-0.6-0.4-0.7c-0.1-0.1-0.3-0.1-0.4-0.1c-0.3,0-0.5,0.1-0.7,0.4c-0.3,0.5-0.5,1.1-0.5,1.9v0.3h2.1V78.5z"/>
		</g>
		<g>
			<path class="st0" d="M158.1,75.6v0.9c0.4-0.4,0.7-0.7,1.1-0.9c0.3-0.2,0.7-0.3,1.1-0.3c0.5,0,0.9,0.1,1.2,0.4s0.5,0.6,0.6,1
				c0.1,0.3,0.1,0.9,0.1,1.7v2.9c0,0.6,0,0.9,0.1,1.1c0.1,0.1,0.3,0.2,0.6,0.3V83h-3.7v-0.3c0.3,0,0.5-0.1,0.6-0.3
				c0.1-0.1,0.1-0.5,0.1-1v-3.3c0-0.6,0-1-0.1-1.1c0-0.2-0.1-0.3-0.2-0.4c-0.1-0.1-0.2-0.1-0.4-0.1c-0.5,0-0.9,0.3-1.3,1v3.9
				c0,0.6,0.1,0.9,0.2,1c0.1,0.1,0.3,0.2,0.6,0.3V83H155v-0.3c0.3,0,0.5-0.1,0.7-0.3c0.1-0.1,0.1-0.5,0.1-1v-4.2c0-0.6,0-0.9-0.1-1
				s-0.3-0.2-0.6-0.3v-0.3C155.1,75.6,158.1,75.6,158.1,75.6z"/>
		</g>
		<g>
			<path class="st0" d="M167,72.9v2.7h1.7v0.8H167v4.5c0,0.4,0,0.7,0.1,0.8c0,0.1,0.1,0.2,0.2,0.3c0.1,0.1,0.2,0.1,0.3,0.1
				c0.3,0,0.7-0.3,1-0.8l0.2,0.2c-0.4,1-1.1,1.5-2.1,1.5c-0.5,0-0.9-0.1-1.2-0.4s-0.5-0.5-0.6-0.9c-0.1-0.2-0.1-0.7-0.1-1.4v-4h-1
				V76c0.7-0.5,1.2-1,1.7-1.5s0.9-1.1,1.2-1.7h0.3V72.9z"/>
		</g>
		<g>
			<path class="st0" d="M56.1,106.8h-3.6l-0.4,1c-0.1,0.3-0.2,0.6-0.2,0.8c0,0.3,0.1,0.5,0.3,0.6c0.1,0.1,0.5,0.1,1,0.2v0.3h-3.4
				v-0.3c0.4-0.1,0.7-0.2,0.9-0.4c0.2-0.2,0.5-0.8,0.9-1.5l3.6-8.1h0.1l3.6,8.3c0.4,0.8,0.6,1.3,0.9,1.5c0.2,0.2,0.4,0.2,0.7,0.3
				v0.3h-4.9v-0.3H56c0.4,0,0.7-0.1,0.8-0.2s0.2-0.2,0.2-0.3c0-0.1,0-0.2,0-0.3c0,0-0.1-0.2-0.2-0.6L56.1,106.8z M55.9,106.2
				l-1.5-3.5l-1.6,3.5H55.9z"/>
		</g>
		<g>
			<path class="st0" d="M61.2,99.6h5.2v0.3h-0.3c-0.4,0-0.7,0-0.8,0.1c-0.1,0.1-0.3,0.2-0.3,0.3c-0.1,0.1-0.1,0.5-0.1,1.1v4.9
				c0,0.9,0.1,1.5,0.2,1.8s0.4,0.5,0.7,0.7c0.3,0.2,0.7,0.3,1.2,0.3s1-0.1,1.4-0.4c0.4-0.2,0.7-0.6,0.9-1c0.2-0.4,0.3-1.2,0.3-2.3
				v-4.1c0-0.5-0.1-0.8-0.1-1c-0.1-0.2-0.2-0.3-0.4-0.4c-0.2-0.1-0.5-0.2-0.9-0.2v-0.3h3.5v0.3h-0.2c-0.3,0-0.5,0.1-0.7,0.2
				s-0.3,0.3-0.4,0.5s-0.1,0.4-0.1,0.9v3.8c0,1.2-0.1,2-0.2,2.6c-0.2,0.5-0.5,1-1.1,1.5c-0.6,0.4-1.4,0.7-2.5,0.7
				c-0.9,0-1.5-0.1-2-0.3c-0.7-0.3-1.1-0.7-1.4-1.2c-0.3-0.5-0.4-1.2-0.4-2v-4.9c0-0.6,0-0.9-0.1-1.1c-0.1-0.1-0.2-0.3-0.3-0.3
				c-0.2-0.1-0.5-0.1-0.9-0.1v-0.4H61.2z"/>
		</g>
		<g>
			<path class="st0" d="M79,99.3l0.1,3.4h-0.3c-0.1-0.8-0.5-1.5-1.1-2s-1.2-0.8-1.8-0.8c-0.5,0-0.9,0.1-1.2,0.4
				c-0.3,0.3-0.4,0.6-0.4,0.9c0,0.2,0.1,0.4,0.2,0.6s0.4,0.5,0.7,0.7c0.2,0.2,0.8,0.5,1.6,0.9c1.2,0.6,2,1.1,2.4,1.6
				s0.6,1.1,0.6,1.8c0,0.8-0.3,1.6-1,2.2s-1.5,0.9-2.5,0.9c-0.3,0-0.6,0-0.9-0.1s-0.6-0.2-1.1-0.4c-0.2-0.1-0.4-0.2-0.6-0.2
				c-0.1,0-0.3,0-0.4,0.2c-0.1,0.1-0.3,0.2-0.3,0.5h-0.3v-3.8H73c0.2,1.1,0.6,1.9,1.3,2.5c0.6,0.6,1.3,0.8,2,0.8
				c0.6,0,1-0.2,1.3-0.5s0.5-0.7,0.5-1.1c0-0.2-0.1-0.5-0.2-0.7s-0.3-0.4-0.6-0.6c-0.3-0.2-0.7-0.5-1.4-0.8c-0.9-0.4-1.6-0.8-2-1.2
				c-0.4-0.3-0.7-0.7-0.9-1.1c-0.2-0.4-0.3-0.8-0.3-1.3c0-0.8,0.3-1.5,0.9-2.1s1.3-0.8,2.2-0.8c0.3,0,0.6,0,0.9,0.1
				c0.2,0.1,0.5,0.2,0.9,0.3c0.3,0.2,0.6,0.2,0.7,0.2s0.2,0,0.3-0.1c0.1-0.1,0.1-0.3,0.2-0.6H79V99.3z"/>
		</g>
		<g>
			<path class="st0" d="M89.9,99.6v2.7h-0.3c-0.2-0.6-0.3-1.1-0.5-1.4s-0.5-0.5-0.8-0.7c-0.2-0.1-0.5-0.1-1-0.1h-0.8v7.8
				c0,0.5,0,0.8,0.1,1c0.1,0.1,0.2,0.2,0.3,0.3c0.2,0.1,0.4,0.1,0.7,0.1H88v0.3h-5.3v-0.3H83c0.3,0,0.5-0.1,0.7-0.2
				c0.1-0.1,0.2-0.2,0.3-0.4c0.1-0.1,0.1-0.4,0.1-0.9V100h-0.7c-0.7,0-1.2,0.1-1.5,0.4c-0.4,0.4-0.7,1-0.8,1.7h-0.3v-2.7h9.1V99.6z"
				/>
		</g>
		<g>
			<path class="st0" d="M94.5,105.1v2.8c0,0.5,0,0.9,0.1,1s0.2,0.3,0.4,0.3c0.2,0.1,0.5,0.1,0.9,0.1v0.3h-5.2v-0.3
				c0.5,0,0.8,0,0.9-0.1c0.2-0.1,0.3-0.2,0.3-0.3c0.1-0.1,0.1-0.5,0.1-1v-6.6c0-0.5,0-0.9-0.1-1s-0.2-0.3-0.4-0.3
				c-0.2-0.1-0.5-0.1-0.9-0.1v-0.3h4.7c1.2,0,2.1,0.1,2.7,0.3c0.6,0.2,1,0.5,1.4,0.9c0.4,0.5,0.5,1,0.5,1.6c0,0.7-0.3,1.4-0.8,1.9
				c-0.3,0.3-0.8,0.5-1.4,0.7l2.4,3.4c0.3,0.4,0.5,0.7,0.7,0.8c0.2,0.2,0.4,0.2,0.7,0.3v0.3h-3.2l-3.3-4.6h-0.5V105.1z M94.5,100.1
				v4.4H95c0.7,0,1.2-0.1,1.5-0.2s0.6-0.4,0.8-0.7c0.2-0.3,0.3-0.8,0.3-1.3c0-0.8-0.2-1.3-0.5-1.7c-0.4-0.4-0.9-0.6-1.7-0.6
				L94.5,100.1L94.5,100.1z"/>
		</g>
		<g>
			<path class="st0" d="M107.8,106.8h-3.6l-0.4,1c-0.1,0.3-0.2,0.6-0.2,0.8c0,0.3,0.1,0.5,0.3,0.6c0.1,0.1,0.5,0.1,1,0.2v0.3h-3.4
				v-0.3c0.4-0.1,0.7-0.2,0.9-0.4c0.2-0.2,0.5-0.8,0.9-1.5l3.6-8.1h0.1l3.6,8.3c0.3,0.8,0.6,1.3,0.9,1.5c0.2,0.2,0.4,0.2,0.7,0.3
				v0.3h-4.9v-0.3h0.2c0.4,0,0.7-0.1,0.8-0.2c0.1-0.1,0.2-0.2,0.2-0.3c0-0.1,0-0.2,0-0.3c0,0-0.1-0.2-0.2-0.6L107.8,106.8z
				 M107.6,106.2l-1.5-3.5l-1.6,3.5H107.6z"/>
		</g>
		<g>
			<path class="st0" d="M122.7,99.3v3.5h-0.3c-0.2-0.9-0.6-1.6-1.2-2.1s-1.3-0.7-2-0.7c-0.6,0-1.2,0.2-1.7,0.5
				c-0.5,0.4-0.9,0.8-1.2,1.4c-0.3,0.7-0.5,1.6-0.5,2.5s0.1,1.7,0.3,2.5c0.2,0.7,0.6,1.3,1.1,1.7c0.5,0.4,1.1,0.6,1.9,0.6
				c0.6,0,1.2-0.1,1.7-0.4s1.1-0.8,1.7-1.4v0.9c-0.6,0.6-1.2,1-1.8,1.3c-0.6,0.3-1.3,0.4-2.1,0.4c-1.1,0-2-0.2-2.9-0.6
				c-0.8-0.4-1.5-1-1.9-1.9c-0.5-0.8-0.7-1.7-0.7-2.6c0-1,0.2-1.9,0.8-2.7c0.5-0.9,1.2-1.5,2-2c0.9-0.5,1.8-0.7,2.7-0.7
				c0.7,0,1.5,0.2,2.3,0.5c0.5,0.2,0.7,0.3,0.9,0.3c0.2,0,0.3-0.1,0.4-0.2s0.2-0.3,0.2-0.6h0.3V99.3z"/>
		</g>
	</g>
	<rect x="245.7" y="19.7" class="st0" width="1.9" height="15"/>
	<g>
		<g>
			<path class="st0" d="M258.2,34.9c-2.3,0-4.1-0.7-5.4-2.1c-1.3-1.4-2-3.2-2-5.5v-0.2c0-2.2,0.7-4,2.1-5.5c1.4-1.5,3.2-2.2,5.4-2.2
				c1.6,0,3,0.4,4.2,1.2c1.1,0.8,1.8,2,2.1,3.6h-1.9c-0.4-2.2-1.8-3.3-4.3-3.3c-1.7,0-3.1,0.6-4.1,1.7s-1.5,2.6-1.5,4.5v0.2
				c0,1.9,0.5,3.4,1.4,4.5c0.9,1.1,2.3,1.7,4.1,1.7c1.6,0,2.8-0.4,3.6-1.3c0.8-0.9,1.2-2,1.2-3.5h-4.5v-1.5h6.3v1.1
				c0,2.1-0.6,3.8-1.8,4.9C261.8,34.3,260.2,34.9,258.2,34.9"/>
		</g>
	</g>
	<polygon class="st0" points="268,34.7 268,19.7 269.9,19.7 269.9,26.5 277.9,26.5 277.9,19.7 279.8,19.7 279.8,34.7 277.9,34.7 
		277.9,28 269.9,28 269.9,34.7 	"/>
	<polygon class="st0" points="287.5,34.7 287.5,21.1 283,21.1 283,19.7 293.8,19.7 293.8,21.1 289.3,21.1 289.3,34.7 	"/>
	<rect x="297.8" y="19.7" class="st0" width="1.9" height="15"/>
	<polygon class="st0" points="304,34.7 304,19.7 306.5,19.7 313.9,32.1 313.9,19.7 315.7,19.7 315.7,34.7 313.6,34.7 305.8,21.8 
		305.8,34.7 	"/>
	<g>
		<g>
			<path class="st0" d="M326.3,34.9c-2.3,0-4.1-0.7-5.4-2.1s-2-3.2-2-5.5v-0.2c0-2.2,0.7-4,2.1-5.5s3.2-2.2,5.4-2.2
				c1.6,0,3,0.4,4.2,1.2c1.1,0.8,1.8,2,2.1,3.6h-1.9c-0.4-2.2-1.8-3.3-4.3-3.3c-1.7,0-3.1,0.6-4.1,1.7s-1.5,2.6-1.5,4.5v0.2
				c0,1.9,0.5,3.4,1.4,4.5c0.9,1.1,2.3,1.7,4.1,1.7c1.6,0,2.8-0.4,3.6-1.3c0.8-0.9,1.2-2,1.2-3.5h-4.5v-1.5h6.3v1.1
				c0,2.1-0.6,3.8-1.8,4.9C329.9,34.3,328.3,34.9,326.3,34.9"/>
		</g>
	</g>
	<polygon class="st0" points="233.8,34.6 233.8,19.6 242.8,19.6 242.8,21.1 235.7,21.1 235.7,26.4 241.2,26.4 241.2,27.9 
		235.7,27.9 235.7,34.6 	"/>
	<polygon class="st0" points="224.3,54.9 224.3,39.8 233.3,39.8 233.3,41.3 226.2,41.3 226.2,46.6 231.7,46.6 231.7,48.1 
		226.2,48.1 226.2,54.9 	"/>
	<rect x="237" y="39.8" class="st0" width="1.9" height="15"/>
	<polygon class="st0" points="242.7,54.9 242.7,39.8 245.2,39.8 252.6,52.3 252.6,39.8 254.4,39.8 254.4,54.9 252.3,54.9 244.5,42 
		244.5,54.9 	"/>
	<path class="st0" d="M257.2,54.9l5.3-15h2.5l5.2,15h-1.8l-1.5-4.3h-6.3l-1.5,4.3H257.2z M263.7,41.3L261,49h5.3L263.7,41.3z"/>
	<polygon class="st0" points="272.6,54.9 272.6,39.8 275,39.8 282.5,52.3 282.5,39.8 284.3,39.8 284.3,54.9 282.1,54.9 274.4,42 
		274.4,54.9 	"/>
	<g>
		<g>
			<path class="st0" d="M294.5,54.9c-2.2,0-4-0.7-5.3-2.1c-1.3-1.4-1.9-3.2-1.9-5.6V47c0-2.2,0.7-4.1,2-5.5c1.4-1.4,3.1-2.2,5.2-2.2
				c1.7,0,3.1,0.4,4.3,1.3c1.2,0.9,1.8,2.1,2,3.6H299c-0.4-2.3-1.8-3.5-4.4-3.5c-1.6,0-2.9,0.6-3.8,1.7c-1,1.1-1.5,2.6-1.5,4.5v0.2
				c0,1.9,0.5,3.4,1.4,4.5s2.2,1.6,3.9,1.6c1.3,0,2.3-0.3,3.1-0.9c0.8-0.6,1.3-1.5,1.5-2.7h1.7c-0.3,1.7-1,3-2.1,3.9
				C297.7,54.4,296.2,54.9,294.5,54.9"/>
		</g>
	</g>
	<rect x="304.8" y="39.8" class="st0" width="1.9" height="15"/>
	<path class="st0" d="M309.4,54.9l5.3-15h2.5l5.2,15h-1.8l-1.5-4.3h-6.3l-1.5,4.3H309.4z M315.9,41.3l-2.7,7.7h5.3L315.9,41.3z"/>
	<g>
		<g>
			<path class="st0" d="M219.8,74.9c-2.2,0-4-0.7-5.3-2.1s-1.9-3.2-1.9-5.6V67c0-2.2,0.7-4.1,2-5.5c1.4-1.4,3.1-2.2,5.2-2.2
				c1.7,0,3.1,0.4,4.3,1.3c1.2,0.9,1.8,2.1,2,3.6h-1.8c-0.4-2.3-1.8-3.5-4.4-3.5c-1.6,0-2.9,0.6-3.8,1.7c-1,1.1-1.5,2.6-1.5,4.5v0.2
				c0,1.9,0.5,3.4,1.4,4.5s2.2,1.6,3.9,1.6c1.3,0,2.3-0.3,3.1-0.9s1.3-1.5,1.5-2.7h1.7c-0.3,1.7-1,3-2.1,3.9
				C223,74.4,221.5,74.9,219.8,74.9"/>
		</g>
		<g>
			<path class="st0" d="M229,74.7v-15h4.6c1.6,0,2.9,0.3,3.9,1s1.5,1.7,1.5,3.2V64c0,1.2-0.3,2.1-1,2.8s-1.6,1.1-2.8,1.3l4.7,6.7
				h-2.1l-4.6-6.5h-2.4v6.5L229,74.7L229,74.7z M230.9,66.7h2.9c2.2,0,3.4-0.9,3.4-2.8v-0.1c0-1-0.3-1.7-0.9-2.1
				c-0.6-0.4-1.4-0.6-2.5-0.6h-2.9V66.7z"/>
		</g>
	</g>
	<polygon class="st0" points="249.3,74.7 249.3,59.6 251.9,59.6 256.7,71.3 261.3,59.6 263.9,59.6 263.9,74.7 262,74.7 262,62 
		256.9,74.7 256.3,74.7 251,62 251,74.7 	"/>
	<polygon class="st0" points="267.7,74.7 267.7,59.6 276.7,59.6 276.7,61.1 269.6,61.1 269.6,66.2 275.3,66.2 275.3,67.7 
		269.6,67.7 269.6,73.2 277.1,73.2 277.1,74.7 	"/>
	<rect x="243" y="59.5" class="st0" width="1.9" height="15"/>
	<polygon class="st1" points="209.7,94.6 209.7,81.8 205.5,81.8 205.5,79.6 216.9,79.6 216.9,81.8 212.6,81.8 212.6,94.6 	"/>
	<g>
		<g>
			<path class="st1" d="M225.6,94.9c-2.3,0-4.2-0.7-5.6-2.2c-1.4-1.4-2.2-3.3-2.2-5.5V87c0-2.2,0.7-4,2.2-5.5s3.3-2.2,5.6-2.2
				s4.1,0.7,5.6,2.1c1.4,1.4,2.2,3.2,2.2,5.5v0.2c0,2.2-0.7,4.1-2.1,5.5C229.8,94.1,227.9,94.9,225.6,94.9 M225.7,92.6
				c1.4,0,2.6-0.5,3.4-1.5c0.9-1,1.3-2.3,1.3-3.9V87c0-1.6-0.4-2.9-1.3-3.9c-0.8-1-2-1.5-3.5-1.5s-2.7,0.5-3.5,1.5
				c-0.9,1-1.3,2.3-1.3,3.9v0.2c0,1.6,0.5,2.9,1.4,3.9C223.1,92.1,224.2,92.6,225.7,92.6"/>
		</g>
		<g>
			<path class="st1" d="M243,94.9c-2.4,0-4.3-0.7-5.6-2.1c-1.4-1.4-2-3.3-2-5.5V87c0-2.2,0.7-4.1,2.1-5.5c1.4-1.4,3.3-2.2,5.5-2.2
				c1.8,0,3.3,0.4,4.5,1.3c1.2,0.8,1.9,2.1,2.1,3.8h-2.9c-0.3-1.9-1.6-2.9-3.7-2.9c-1.5,0-2.7,0.5-3.5,1.5s-1.3,2.3-1.3,4v0.2
				c0,1.7,0.4,3,1.2,4s2,1.5,3.5,1.5c1.4,0,2.4-0.3,3.1-1c0.7-0.7,1-1.6,1.1-2.7h-3.9v-2.1h6.7v1.4c0,2.1-0.6,3.7-1.9,4.9
				C246.8,94.3,245.1,94.9,243,94.9"/>
		</g>
	</g>
	<polygon class="st1" points="252.7,94.6 252.7,79.6 262.3,79.6 262.3,81.8 255.5,81.8 255.5,85.9 260.9,85.9 260.9,88 255.5,88 
		255.5,92.4 262.6,92.4 262.6,94.6 	"/>
	<polygon class="st1" points="269.6,94.6 269.6,81.8 265.4,81.8 265.4,79.6 276.8,79.6 276.8,81.8 272.5,81.8 272.5,94.6 	"/>
	<polygon class="st0" points="279.5,94.6 279.5,79.6 282.3,79.6 282.3,86 289.2,86 289.2,79.6 292.1,79.6 292.1,94.6 289.2,94.6 
		289.2,88.2 282.3,88.2 282.3,94.6 	"/>
	<polygon class="st1" points="295.1,94.6 295.1,79.6 304.7,79.6 304.7,81.8 298,81.8 298,85.9 303.4,85.9 303.4,88 298,88 298,92.4 
		305.1,92.4 305.1,94.6 	"/>
	<path class="st1" d="M307.6,94.6v-15h5.2c1.8,0,3.2,0.4,4.2,1.1s1.5,1.8,1.5,3.3v0.1c0,2.1-1.1,3.5-3.4,4l4.3,6.5h-3.1l-4-6.1h-1.8
		v6.1H307.6z M310.5,86.6h2.3c1.9,0,2.9-0.8,2.9-2.4v-0.1c0-0.8-0.2-1.4-0.7-1.8s-1.2-0.5-2.2-0.5h-2.3L310.5,86.6L310.5,86.6z"/>
	<polygon class="st1" points="279.5,94.6 279.5,79.5 282.3,79.5 282.3,85.9 289.2,85.9 289.2,79.5 292.1,79.5 292.1,94.6 
		289.2,94.6 289.2,88.2 282.3,88.2 282.3,94.6 	"/>
	<polygon class="st0" points="237.7,1.7 188.7,109.5 193,109.5 242.1,1.7 	"/>
</g>
</svg>
